<svg viewBox="0 0 512 512" xml:space="preserve" xmlns="http://www.w3.org/2000/svg"
  enable-background="new 0 0 512 512"><path d="M396 173.481c-8.271 0-15 6.729-15 15s6.729 15 15 15 15-6.729 15-15c0-8.27-6.729-15-15-15zM346 213.481c-8.271 0-15 6.729-15 15s6.729 15 15 15 15-6.729 15-15c0-8.27-6.729-15-15-15zM101 198v20h15c2.761 0 5 2.721 5 5.481V243h30v-19.519c0-2.761 2.239-5.481 5-5.481h15v-20h-15c-2.761 0-5-1.757-5-4.519V173h-30v20.481c0 2.762-2.239 4.519-5 4.519h-15z" fill="#6090a1" class="fill-000000"></path><path d="m41.262 132.2 7.656 113.755L251 408.061V181.067l-108.875-77.128L41.262 132.2zM161 168.481V188h15c2.761 0 5 2.721 5 5.481v30c0 2.762-2.239 4.519-5 4.519h-15v20.481c0 2.762-2.239 4.519-5 4.519h-40c-2.761 0-5-1.757-5-4.519V228H96c-2.761 0-5-1.757-5-4.519v-30c0-2.761 2.239-5.481 5-5.481h15v-19.519c0-2.761 2.239-5.481 5-5.481h40c2.761 0 5 2.721 5 5.481zM369.874 103.939 261 181.067V408.06l202.083-162.105 7.655-113.755-100.864-28.261zM346 253.481c-13.785 0-25-11.215-25-25s11.215-25 25-25 25 11.215 25 25-11.215 25-25 25zm50-40c-13.785 0-25-11.215-25-25s11.215-25 25-25 25 11.215 25 25-11.215 25-25 25z" fill="#6090a1" class="fill-000000"></path></svg>
