<svg width="100" height="100" viewBox="0 0 100 100" fill="none" xmlns="http://www.w3.org/2000/svg">
  <path
    d="M25.7981 91.9241H63.9973C64.4071 91.9241 64.804 91.7811 65.1192 91.5196L75.3235 83.0589C75.7264 82.7249 75.9594 82.2288 75.9594 81.7056V9.8335C75.9594 8.8626 75.1725 8.07568 74.2016 8.07568H25.7981C24.8272 8.07568 24.0403 8.8626 24.0403 9.8335V90.1665C24.0403 91.1372 24.8274 91.9241 25.7981 91.9241ZM27.5559 11.5913H72.4438V80.8796L63.3633 88.4087H27.5559V11.5913Z"
    fill="black" />
  <path
    d="M34.9609 50.5209H65.0391C66.01 50.5209 66.7969 49.734 66.7969 48.7631V18.1641C66.7969 17.1932 66.01 16.4062 65.0391 16.4062H34.9609C33.99 16.4062 33.2031 17.1932 33.2031 18.1641V48.7631C33.2031 49.734 33.9902 50.5209 34.9609 50.5209ZM36.7188 19.9219H63.2812V47.0053H36.7188V19.9219Z"
    fill="black" />
  <path
    d="M36.9707 73.5188H46.3301V69.7512H50.0977V60.3918H46.3299V56.6243H36.9705V60.3918H33.2031V69.7512H36.9705L36.9707 73.5188ZM36.7188 66.2356V63.9075H40.4861V60.1399H42.8143V63.9075H46.582V66.2356H42.8143V70.0032H40.4861V66.2356H36.7188Z"
    fill="black" />
  <path
    d="M57.2911 65.52C54.4892 65.52 52.2095 67.7997 52.2095 70.6017C52.2095 73.4036 54.4892 75.6833 57.2911 75.6833C60.0931 75.6833 62.3728 73.4036 62.3728 70.6017C62.3728 67.7997 60.0931 65.52 57.2911 65.52ZM57.2911 72.1675C56.4276 72.1675 55.7251 71.4649 55.7251 70.6015C55.7251 69.738 56.4276 69.0354 57.2911 69.0354C58.1546 69.0354 58.8571 69.738 58.8571 70.6015C58.8571 71.4649 58.1546 72.1675 57.2911 72.1675Z"
    fill="black" />
  <path
    d="M61.5079 55.9485C58.706 55.9485 56.4263 58.2282 56.4263 61.0301C56.4263 63.8321 58.706 66.1118 61.5079 66.1118C64.3099 66.1118 66.5895 63.8321 66.5895 61.0301C66.5895 58.2282 64.3099 55.9485 61.5079 55.9485ZM61.5079 62.5959C60.6444 62.5959 59.9419 61.8934 59.9419 61.0299C59.9419 60.1665 60.6444 59.4639 61.5079 59.4639C62.3714 59.4639 63.0739 60.1665 63.0739 61.0299C63.0739 61.8934 62.3714 62.5959 61.5079 62.5959Z"
    fill="black" />
  <path
    d="M42.6777 80.3386H37.7908C36.8199 80.3386 36.033 81.1255 36.033 82.0964C36.033 83.0673 36.8199 83.8542 37.7908 83.8542H42.6777C43.6486 83.8542 44.4355 83.0673 44.4355 82.0964C44.4355 81.1255 43.6486 80.3386 42.6777 80.3386Z"
    fill="black" />
  <path
    d="M52.4433 80.3386H47.5564C46.5855 80.3386 45.7986 81.1255 45.7986 82.0964C45.7986 83.0673 46.5855 83.8542 47.5564 83.8542H52.4433C53.4142 83.8542 54.2011 83.0673 54.2011 82.0964C54.2011 81.1255 53.414 80.3386 52.4433 80.3386Z"
    fill="black" />
  <path
    d="M63.9667 82.0964C63.9667 81.1255 63.1798 80.3386 62.2089 80.3386H57.322C56.3511 80.3386 55.5642 81.1255 55.5642 82.0964C55.5642 83.0673 56.3511 83.8542 57.322 83.8542H62.2089C63.1796 83.8542 63.9667 83.0673 63.9667 82.0964Z"
    fill="black" />
</svg>
