<svg width="150" height="150" viewBox="0 0 150 150" fill="none" xmlns="http://www.w3.org/2000/svg">
<g id="Not Found">
<g id="Error_x2C__lost_x2C__no_page_x2C__not_found">
<g id="Group">
<g id="Group_2">
<g id="Group_3">
<path id="Vector" d="M35.1562 28.125C36.4507 28.125 37.5 27.0757 37.5 25.7812C37.5 24.4868 36.4507 23.4375 35.1562 23.4375C33.8618 23.4375 32.8125 24.4868 32.8125 25.7812C32.8125 27.0757 33.8618 28.125 35.1562 28.125Z" fill="url(#paint0_linear_269_83)"/>
<path id="Vector_2" d="M25.7812 28.125C27.0757 28.125 28.125 27.0757 28.125 25.7812C28.125 24.4868 27.0757 23.4375 25.7812 23.4375C24.4868 23.4375 23.4375 24.4868 23.4375 25.7812C23.4375 27.0757 24.4868 28.125 25.7812 28.125Z" fill="url(#paint1_linear_269_83)"/>
<path id="Vector_3" d="M16.4062 28.125C17.7007 28.125 18.75 27.0757 18.75 25.7812C18.75 24.4868 17.7007 23.4375 16.4062 23.4375C15.1118 23.4375 14.0625 24.4868 14.0625 25.7812C14.0625 27.0757 15.1118 28.125 16.4062 28.125Z" fill="url(#paint2_linear_269_83)"/>
<path id="Vector_4" d="M142.969 37.5H7.03125C5.7375 37.5 4.6875 36.45 4.6875 35.1562C4.6875 33.8625 5.7375 32.8125 7.03125 32.8125H142.969C144.262 32.8125 145.312 33.8625 145.312 35.1562C145.312 36.45 144.262 37.5 142.969 37.5Z" fill="url(#paint3_linear_269_83)"/>
<path id="Vector_5" d="M138.281 135.938H11.7188C7.84219 135.938 4.6875 132.783 4.6875 128.906V21.0938C4.6875 17.2172 7.84219 14.0625 11.7188 14.0625H138.281C142.158 14.0625 145.312 17.2172 145.312 21.0938V128.906C145.312 132.783 142.158 135.938 138.281 135.938ZM11.7188 18.75C10.425 18.75 9.375 19.8047 9.375 21.0938V128.906C9.375 130.195 10.425 131.25 11.7188 131.25H138.281C139.575 131.25 140.625 130.195 140.625 128.906V21.0938C140.625 19.8047 139.575 18.75 138.281 18.75H11.7188Z" fill="url(#paint4_linear_269_83)"/>
</g>
</g>
</g>
<g id="Group_4">
<path id="Vector_6" d="M114.844 112.5C113.55 112.5 112.5 111.45 112.5 110.156V98.4375H96.0938C95.3297 98.4375 94.6172 98.0672 94.1766 97.4438C93.736 96.8203 93.6282 96.0234 93.886 95.3063L105.605 62.4937C105.938 61.5609 106.823 60.9375 107.813 60.9375H114.844C116.138 60.9375 117.188 61.9875 117.188 63.2812V93.75H119.531C120.825 93.75 121.875 94.8 121.875 96.0938C121.875 97.3875 120.825 98.4375 119.531 98.4375H117.188V110.156C117.188 111.45 116.138 112.5 114.844 112.5ZM99.4172 93.75H112.5V65.625H109.467L99.4172 93.75Z" fill="url(#paint5_linear_269_83)"/>
<path id="Vector_7" d="M49.2188 112.5C47.925 112.5 46.875 111.45 46.875 110.156V98.4375H30.4688C29.7047 98.4375 28.9922 98.0672 28.5516 97.4438C28.111 96.8203 28.0032 96.0234 28.261 95.3063L39.9797 62.4937C40.3125 61.5609 41.1985 60.9375 42.1875 60.9375H49.2188C50.5125 60.9375 51.5625 61.9875 51.5625 63.2812V93.75H53.9063C55.2 93.75 56.25 94.8 56.25 96.0938C56.25 97.3875 55.2 98.4375 53.9063 98.4375H51.5625V110.156C51.5625 111.45 50.5125 112.5 49.2188 112.5ZM33.7922 93.75H46.875V65.625H43.8422L33.7922 93.75Z" fill="url(#paint6_linear_269_83)"/>
<path id="Vector_8" d="M82.0312 112.5H67.9688C64.0922 112.5 60.9375 109.345 60.9375 105.469V67.9688C60.9375 64.0922 64.0922 60.9375 67.9688 60.9375H82.0312C85.9078 60.9375 89.0625 64.0922 89.0625 67.9688V105.469C89.0625 109.345 85.9078 112.5 82.0312 112.5ZM67.9688 65.625C66.675 65.625 65.625 66.6797 65.625 67.9688V105.469C65.625 106.758 66.675 107.812 67.9688 107.812H82.0312C83.325 107.812 84.375 106.758 84.375 105.469V67.9688C84.375 66.6797 83.325 65.625 82.0312 65.625H67.9688Z" fill="url(#paint7_linear_269_83)"/>
</g>
</g>
</g>
<defs>
<linearGradient id="paint0_linear_269_83" x1="35.1562" y1="23.4375" x2="35.1562" y2="28.125" gradientUnits="userSpaceOnUse">
<stop offset="0.245" stop-color="#00FFF0"/>
<stop offset="1" stop-color="#4100F9"/>
</linearGradient>
<linearGradient id="paint1_linear_269_83" x1="25.7812" y1="23.4375" x2="25.7812" y2="28.125" gradientUnits="userSpaceOnUse">
<stop offset="0.245" stop-color="#00FFF0"/>
<stop offset="1" stop-color="#4100F9"/>
</linearGradient>
<linearGradient id="paint2_linear_269_83" x1="16.4062" y1="23.4375" x2="16.4062" y2="28.125" gradientUnits="userSpaceOnUse">
<stop offset="0.245" stop-color="#00FFF0"/>
<stop offset="1" stop-color="#4100F9"/>
</linearGradient>
<linearGradient id="paint3_linear_269_83" x1="75" y1="32.8125" x2="75" y2="37.5" gradientUnits="userSpaceOnUse">
<stop offset="0.245" stop-color="#00FFF0"/>
<stop offset="1" stop-color="#4100F9"/>
</linearGradient>
<linearGradient id="paint4_linear_269_83" x1="75" y1="14.0625" x2="75" y2="135.938" gradientUnits="userSpaceOnUse">
<stop offset="0.245" stop-color="#00FFF0"/>
<stop offset="1" stop-color="#4100F9"/>
</linearGradient>
<linearGradient id="paint5_linear_269_83" x1="107.812" y1="60.9375" x2="107.812" y2="112.5" gradientUnits="userSpaceOnUse">
<stop offset="0.245" stop-color="#00FFF0"/>
<stop offset="1" stop-color="#4100F9"/>
</linearGradient>
<linearGradient id="paint6_linear_269_83" x1="42.1866" y1="60.9375" x2="42.1866" y2="112.5" gradientUnits="userSpaceOnUse">
<stop offset="0.245" stop-color="#00FFF0"/>
<stop offset="1" stop-color="#4100F9"/>
</linearGradient>
<linearGradient id="paint7_linear_269_83" x1="75" y1="60.9375" x2="75" y2="112.5" gradientUnits="userSpaceOnUse">
<stop offset="0.245" stop-color="#00FFF0"/>
<stop offset="1" stop-color="#4100F9"/>
</linearGradient>
</defs>
</svg>
