<svg width="80" height="80" viewBox="0 0 80 80" fill="none" xmlns="http://www.w3.org/2000/svg">
  <g filter="url(#filter0_b_2_8)">
    <path
      d="M42.6945 68.2144C42.5634 68.2148 42.4336 68.1875 42.3137 68.1344L31.6193 63.5488C31.4475 63.4746 31.3011 63.3517 31.1982 63.1954C31.0953 63.039 31.0404 62.856 31.0401 62.6688V12.7488C31.0405 12.6094 31.0712 12.4718 31.1302 12.3455C31.1891 12.2191 31.2748 12.1072 31.3814 12.0173C31.488 11.9275 31.6129 11.862 31.7473 11.8253C31.8818 11.7886 32.0227 11.7816 32.1601 11.8048C33.1201 11.968 56.0161 15.92 59.3601 26.032C61.9201 33.7504 59.4113 38.8832 58.2177 40.7328C57.1969 42.3104 56.0001 43.3152 55.0177 43.4208C49.5777 43.9872 47.4465 40.5632 47.3569 40.416C47.2669 40.265 47.2194 40.0926 47.2193 39.9168V24.9344L43.8273 23.5232L43.6641 67.2576C43.6629 67.416 43.6226 67.5717 43.5467 67.7107C43.4707 67.8497 43.3616 67.9678 43.2289 68.0544C43.0705 68.1595 42.8846 68.2152 42.6945 68.2144ZM32.9601 62.0352L41.7409 65.7984L41.9009 22.08C41.9013 21.922 41.9406 21.7665 42.0155 21.6273C42.0904 21.4881 42.1985 21.3696 42.3302 21.2822C42.4619 21.1948 42.6131 21.1413 42.7704 21.1264C42.9278 21.1115 43.0864 21.1357 43.2321 21.1968L48.5377 23.4048C48.7129 23.4775 48.8627 23.6005 48.968 23.7583C49.0734 23.9161 49.1297 24.1015 49.1297 24.2912V39.6032C49.5969 40.1856 51.2705 41.872 54.8065 41.504C55.0177 41.4656 55.8945 40.8864 56.7937 39.3696C57.7537 37.7696 59.7345 33.2896 57.5329 26.6272C54.9377 18.784 37.5681 14.8256 32.9601 13.904V62.0352ZM45.4721 67.2C45.2175 67.2 44.9733 67.0989 44.7933 66.9188C44.6133 66.7388 44.5121 66.4946 44.5121 66.24V60.3744C44.512 60.1758 44.5735 59.9821 44.6881 59.8199C44.8028 59.6577 44.9649 59.535 45.1521 59.4688L64.9345 52.544L61.7153 51.1104L45.7729 54.8544C45.6332 54.8869 45.488 54.8877 45.3479 54.8568C45.2079 54.8258 45.0765 54.7638 44.9636 54.6754C44.8506 54.587 44.7589 54.4744 44.6952 54.3459C44.6314 54.2174 44.5973 54.0762 44.5953 53.9328C44.5953 53.9328 44.5793 52.6208 44.5729 51.3056C44.5729 50.6432 44.5729 49.984 44.5729 49.4848C44.5729 48.4512 44.5729 48.0224 45.1937 47.7696C51.3633 45.0752 58.0353 44.6144 58.9025 44.5696C64.4609 43.3632 73.5553 47.9104 75.5809 51.952C76.3009 53.3888 76.0833 54.7488 74.9825 55.68C71.1745 58.9056 46.8033 66.816 45.7697 67.152C45.6737 67.1836 45.5732 67.1998 45.4721 67.2ZM46.4321 61.0624V64.9024C54.1505 62.368 70.9825 56.5408 73.7409 54.2048C73.9425 54.032 74.3201 53.712 73.8625 52.7968C72.3489 49.7728 64.0705 45.3408 59.2481 46.448C59.1934 46.4602 59.1377 46.4677 59.0817 46.4704C59.0145 46.4704 52.5089 46.8192 46.4929 49.2992C46.4929 50.0416 46.4929 51.4208 46.4929 52.7072L61.5809 49.1616C61.7845 49.1141 61.9979 49.1343 62.1889 49.2192L67.9169 51.7792C68.0924 51.8576 68.2403 51.9868 68.3415 52.1501C68.4427 52.3134 68.4926 52.5034 68.4846 52.6954C68.4767 52.8874 68.4113 53.0726 68.297 53.227C68.1827 53.3814 68.0246 53.498 67.8433 53.5616L46.4321 61.0624ZM19.2225 62.528H18.6785C12.5729 62.4544 7.79852 61.088 5.53932 58.7744C5.03898 58.2851 4.64425 57.6985 4.37952 57.0507C4.11478 56.4029 3.98566 55.7077 4.00012 55.008C4.11212 49.1136 19.0401 44.4704 29.0593 42.7872C29.1979 42.7643 29.3398 42.772 29.475 42.8098C29.6102 42.8477 29.7355 42.9148 29.842 43.0063C29.9485 43.0978 30.0336 43.2116 30.0913 43.3397C30.1491 43.4677 30.178 43.6068 30.1761 43.7472V49.92C30.1762 50.1317 30.1062 50.3375 29.9771 50.5054C29.8481 50.6732 29.6671 50.7937 29.4625 50.848L16.9121 54.1696C16.7054 54.4624 16.5645 54.7964 16.4993 55.1488C16.6956 55.2266 16.9059 55.2626 17.1169 55.2544C21.1645 55.3409 25.2019 54.8133 29.0913 53.6896C29.2365 53.6428 29.3907 53.6313 29.5412 53.656C29.6917 53.6807 29.8342 53.7409 29.9568 53.8316C30.0794 53.9223 30.1786 54.0409 30.2463 54.1776C30.3139 54.3143 30.348 54.4651 30.3457 54.6176L30.2625 59.968C30.2604 60.1389 30.2127 60.306 30.1244 60.4523C30.0361 60.5985 29.9103 60.7186 29.7601 60.8C29.6033 60.8768 26.3265 62.528 19.2225 62.528ZM28.2561 44.8768C16.2977 47.0624 5.98412 51.7184 5.92012 55.04C5.91286 55.4857 5.99781 55.9282 6.16962 56.3395C6.34142 56.7509 6.59639 57.1223 6.91852 57.4304C8.78092 59.3504 13.1841 60.5312 18.7009 60.5984C24.0673 60.6624 27.1969 59.7344 28.3521 59.3184L28.4065 55.8848C24.7013 56.8289 20.8852 57.266 17.0625 57.184C15.6001 57.1424 15.0049 56.5152 14.7617 55.9968C14.1409 54.6752 15.3313 53.056 15.5777 52.7456C15.7063 52.5813 15.8849 52.4633 16.0865 52.4096L28.2465 49.2096L28.2561 44.8768Z"
      fill="#FF0000" fill-opacity="0.66" />
  </g>
  <defs>
    <filter id="filter0_b_2_8" x="-5" y="-5" width="90" height="90" filterUnits="userSpaceOnUse"
      color-interpolation-filters="sRGB">
      <feFlood flood-opacity="0" result="BackgroundImageFix" />
      <feGaussianBlur in="BackgroundImageFix" stdDeviation="2.5" />
      <feComposite in2="SourceAlpha" operator="in" result="effect1_backgroundBlur_2_8" />
      <feBlend mode="normal" in="SourceGraphic" in2="effect1_backgroundBlur_2_8" result="shape" />
    </filter>
  </defs>
</svg>
