<svg data-name="Layer 2" viewBox="0 0 250 250" xmlns="http://www.w3.org/2000/svg">
  <path
    d="M133.42 213.17a2.92 2.92 0 0 1-1.19-.25l-33.42-14.33a3 3 0 0 1-1.81-2.75v-156a3 3 0 0 1 3.5-2.95c3 .51 74.55 12.86 85 44.46 8 24.12.16 40.16-3.57 45.94-3.19 4.93-6.93 8.07-10 8.4-17 1.77-23.66-8.93-23.94-9.39a3.05 3.05 0 0 1-.43-1.56V77.92l-10.6-4.41-.51 136.67a3 3 0 0 1-1.36 2.49 3 3 0 0 1-1.67.5ZM103 193.86l27.44 11.76.5-136.62a3 3 0 0 1 4.16-2.76l16.58 6.9a3 3 0 0 1 1.85 2.77v47.85c1.46 1.82 6.69 7.09 17.74 5.94.66-.12 3.4-1.93 6.21-6.67 3-5 9.19-19 2.31-39.82C171.68 58.7 117.4 46.33 103 43.45ZM142.1 210a3 3 0 0 1-3-3v-18.33a3 3 0 0 1 2-2.83l61.82-21.64-10.06-4.48-49.82 11.7a3 3 0 0 1-3.68-2.88s-.05-4.1-.07-8.21v-5.69c0-3.23 0-4.57 1.94-5.36 19.28-8.42 40.13-9.86 42.84-10 17.37-3.77 45.79 10.44 52.12 23.07 2.25 4.49 1.57 8.74-1.87 11.65-11.9 10.08-88.06 34.8-91.29 35.85a3 3 0 0 1-.93.15Zm3-19.18v12c24.12-7.92 76.72-26.13 85.34-33.43.63-.54 1.81-1.54.38-4.4-4.73-9.45-30.6-23.3-45.67-19.84a3.09 3.09 0 0 1-.52.07c-.21 0-20.54 1.09-39.34 8.84v10.65l47.15-11.08a3 3 0 0 1 1.9.18l17.9 8a3 3 0 0 1-.23 5.57Zm-1.42-36-.11.05ZM60.07 195.4h-1.7c-19.08-.23-34-4.5-41.06-11.73a16 16 0 0 1-4.81-11.77c.35-18.42 47-32.93 78.31-38.19a3 3 0 0 1 3.49 3V156a3 3 0 0 1-2.23 2.9l-39.22 10.38a7.75 7.75 0 0 0-1.29 3.06 4.74 4.74 0 0 0 1.93.33 125.19 125.19 0 0 0 37.42-4.89 3 3 0 0 1 3.92 2.9l-.26 16.72A3 3 0 0 1 93 190c-.49.24-10.73 5.4-32.93 5.4Zm28.23-55.16c-37.37 6.83-69.6 21.38-69.8 31.76a10.11 10.11 0 0 0 3.12 7.47c5.82 6 19.58 9.69 36.82 9.9 16.77.2 26.55-2.7 30.16-4l.17-10.73a132.1 132.1 0 0 1-35.45 4.06c-4.57-.13-6.43-2.09-7.19-3.71-1.94-4.13 1.78-9.19 2.55-10.16a3 3 0 0 1 1.59-1.05l38-10Zm3.27 47.11Z"
    fill="#222030" class="fill-000000"></path>
</svg>
