<svg width="50" height="51" viewBox="0 0 50 51" fill="none" xmlns="http://www.w3.org/2000/svg">
  <g filter="url(#filter0_b_18_41)">
    <path
      d="M26.6842 43.0784C26.6022 43.0786 26.5211 43.0615 26.4462 43.0284L19.7622 40.1624C19.6548 40.116 19.5633 40.0392 19.499 39.9414C19.4347 39.8437 19.4003 39.7293 19.4002 39.6124V8.41236C19.4004 8.32524 19.4196 8.23921 19.4565 8.16026C19.4933 8.08131 19.5469 8.01133 19.6135 7.95519C19.6801 7.89904 19.7582 7.85808 19.8422 7.83514C19.9263 7.8122 20.0143 7.80784 20.1002 7.82236C20.7002 7.92436 35.0102 10.3944 37.1002 16.7144C38.7002 21.5384 37.1322 24.7464 36.3862 25.9024C35.7482 26.8884 35.0002 27.5164 34.3862 27.5824C30.9862 27.9364 29.6542 25.7964 29.5982 25.7044C29.542 25.61 29.5122 25.5022 29.5122 25.3924V16.0284L27.3922 15.1464L27.2902 42.4804C27.2895 42.5794 27.2642 42.6767 27.2168 42.7635C27.1693 42.8504 27.1011 42.9242 27.0182 42.9784C26.9192 43.044 26.803 43.0788 26.6842 43.0784ZM20.6002 39.2164L26.0882 41.5684L26.1882 14.2444C26.1884 14.1456 26.213 14.0484 26.2598 13.9614C26.3066 13.8744 26.3742 13.8003 26.4565 13.7457C26.5388 13.6911 26.6333 13.6577 26.7316 13.6484C26.83 13.639 26.9291 13.6542 27.0202 13.6924L30.3362 15.0724C30.4457 15.1178 30.5393 15.1947 30.6051 15.2933C30.671 15.3919 30.7062 15.5078 30.7062 15.6264V25.1964C30.9982 25.5604 32.0442 26.6144 34.2542 26.3844C34.3862 26.3604 34.9342 25.9984 35.4962 25.0504C36.0962 24.0504 37.3342 21.2504 35.9582 17.0864C34.3362 12.1844 23.4802 9.71036 20.6002 9.13436V39.2164ZM28.4202 42.4444C28.2611 42.4444 28.1085 42.3811 27.9959 42.2686C27.8834 42.1561 27.8202 42.0035 27.8202 41.8444V38.1784C27.8201 38.0542 27.8586 37.9331 27.9302 37.8318C28.0018 37.7304 28.1032 37.6537 28.2202 37.6124L40.5842 33.2844L38.5722 32.3884L28.6082 34.7284C28.5209 34.7487 28.4301 34.7492 28.3426 34.7298C28.255 34.7105 28.173 34.6717 28.1024 34.6165C28.0318 34.5612 27.9744 34.4909 27.9346 34.4105C27.8948 34.3302 27.8734 34.242 27.8722 34.1524C27.8722 34.1524 27.8622 33.3324 27.8582 32.5104C27.8582 32.0964 27.8582 31.6844 27.8582 31.3724C27.8582 30.7264 27.8582 30.4584 28.2462 30.3004C32.1022 28.6164 36.2722 28.3284 36.8142 28.3004C40.2882 27.5464 45.9722 30.3884 47.2382 32.9144C47.6882 33.8124 47.5522 34.6624 46.8642 35.2444C44.4842 37.2604 29.2522 42.2044 28.6062 42.4144C28.5462 42.4341 28.4834 42.4442 28.4202 42.4444ZM29.0202 38.6084V41.0084C33.8442 39.4244 44.3642 35.7824 46.0882 34.3224C46.2142 34.2144 46.4502 34.0144 46.1642 33.4424C45.2182 31.5524 40.0442 28.7824 37.0302 29.4744C36.996 29.482 36.9612 29.4866 36.9262 29.4884C36.8842 29.4884 32.8182 29.7064 29.0582 31.2564C29.0582 31.7204 29.0582 32.5824 29.0582 33.3864L38.4882 31.1704C38.6154 31.1407 38.7488 31.1533 38.8682 31.2064L42.4482 32.8064C42.5579 32.8553 42.6503 32.9361 42.7135 33.0382C42.7768 33.1402 42.808 33.259 42.803 33.379C42.7981 33.499 42.7572 33.6147 42.6858 33.7112C42.6143 33.8077 42.5155 33.8806 42.4022 33.9204L29.0202 38.6084ZM12.0142 39.5244H11.6742C7.85819 39.4784 4.87419 38.6244 3.46219 37.1784C3.14948 36.8726 2.90278 36.5059 2.73732 36.101C2.57186 35.6961 2.49116 35.2616 2.50019 34.8244C2.57019 31.1404 11.9002 28.2384 18.1622 27.1864C18.2488 27.172 18.3375 27.1768 18.422 27.2005C18.5065 27.2242 18.5848 27.2661 18.6514 27.3233C18.7179 27.3805 18.7711 27.4516 18.8072 27.5316C18.8433 27.6116 18.8614 27.6986 18.8602 27.7864V31.6444C18.8602 31.7767 18.8165 31.9053 18.7358 32.0102C18.6552 32.1151 18.5421 32.1904 18.4142 32.2244L10.5702 34.3004C10.441 34.4833 10.353 34.6921 10.3122 34.9124C10.4349 34.961 10.5663 34.9835 10.6982 34.9784C13.2279 35.0324 15.7513 34.7027 18.1822 34.0004C18.2729 33.9711 18.3693 33.9639 18.4634 33.9793C18.5574 33.9948 18.6465 34.0324 18.7231 34.0891C18.7997 34.1458 18.8618 34.2199 18.904 34.3053C18.9463 34.3908 18.9676 34.485 18.9662 34.5804L18.9142 37.9244C18.9129 38.0311 18.8831 38.1356 18.8279 38.227C18.7727 38.3184 18.6941 38.3935 18.6002 38.4444C18.5022 38.4924 16.4542 39.5244 12.0142 39.5244ZM17.6602 28.4924C10.1862 29.8584 3.74019 32.7684 3.70019 34.8444C3.69566 35.1229 3.74875 35.3994 3.85613 35.6565C3.96351 35.9136 4.12287 36.1458 4.3242 36.3384C5.4882 37.5384 8.24019 38.2764 11.6882 38.3184C15.0422 38.3584 16.9982 37.7784 17.7202 37.5184L17.7542 35.3724C15.4385 35.9624 13.0534 36.2356 10.6642 36.1844C9.75019 36.1584 9.37819 35.7664 9.22619 35.4424C8.83819 34.6164 9.58219 33.6044 9.73619 33.4104C9.81656 33.3077 9.92819 33.2339 10.0542 33.2004L17.6542 31.2004L17.6602 28.4924Z"
      fill="black" />
  </g>
  <defs>
    <filter id="filter0_b_18_41" x="-5" y="-4.55566" width="60" height="60"
      filterUnits="userSpaceOnUse" color-interpolation-filters="sRGB">
      <feFlood flood-opacity="0" result="BackgroundImageFix" />
      <feGaussianBlur in="BackgroundImageFix" stdDeviation="2.5" />
      <feComposite in2="SourceAlpha" operator="in" result="effect1_backgroundBlur_18_41" />
      <feBlend mode="normal" in="SourceGraphic" in2="effect1_backgroundBlur_18_41" result="shape" />
    </filter>
  </defs>
</svg>
