<svg viewBox="0 0 256 256" xmlns="http://www.w3.org/2000/svg">
  <path fill="none" d="M0 0h256v256H0z"></path>
  <path fill="none" stroke="#6090a1" stroke-linecap="round" stroke-linejoin="round" stroke-width="8"
    d="M152 108h32M72 108h32M88 92v32M172 55.7 84 56a52.1 52.1 0 0 0-51.2 43h0l-16.4 84.1a28 28 0 0 0 47.4 24.7h0L107 160l65-.3a52 52 0 1 0 0-104Z"
    class="stroke-000000"></path>
  <path d="m223.2 98.7 16.4 84.4a28 28 0 0 1-47.4 24.7h0l-43.2-48" fill="none" stroke="#6090a1"
    stroke-linecap="round" stroke-linejoin="round" stroke-width="8" class="stroke-000000"></path>
</svg>
