<svg width="40" height="41" viewBox="0 0 40 41" fill="none" xmlns="http://www.w3.org/2000/svg">
  <path d="M26.3125 9.0415C26.875 9.854 27.25 10.729 27.4375 11.729" stroke="black"
    stroke-miterlimit="10" stroke-linecap="round" stroke-linejoin="round" />
  <path
    d="M27.1875 15.6665C26.1875 18.4165 23.5 20.4165 20.375 20.4165C16.375 20.4165 13.1875 17.1665 13.1875 13.229C13.1875 9.2915 16.375 5.9165 20.375 5.9165C22.0625 5.9165 23.625 6.479 24.875 7.479"
    stroke="black" stroke-miterlimit="10" stroke-linecap="round" stroke-linejoin="round" />
  <path d="M7 35.4165C7 27.104 12.8125 20.4165 20 20.4165C27.1875 20.4165 33 27.104 33 35.4165"
    stroke="black" stroke-miterlimit="10" stroke-linecap="round" stroke-linejoin="round" />
  <path
    d="M13.9375 29.229C15.4375 27.2915 17.5625 26.104 20 26.104C20.6875 26.104 21.3125 26.229 21.9375 26.354"
    stroke="black" stroke-miterlimit="10" stroke-linecap="round" stroke-linejoin="round" />
  <path d="M11.9375 35.4165C11.9375 34.5415 12.0625 33.729 12.25 32.9165" stroke="black"
    stroke-miterlimit="10" stroke-linecap="round" stroke-linejoin="round" />
</svg>
