<svg viewBox="0 0 32 32" xml:space="preserve" xmlns="http://www.w3.org/2000/svg"><g fill="none" stroke="#FFFFFF" stroke-linecap="round" stroke-linejoin="round" stroke-miterlimit="10" stroke-width="2" class="stroke-ffffff"></g><path d="M2.982 17h26.035a.984.984 0 0 0 .908-.617 1.013 1.013 0 0 0-.213-1.09l-11.789-12c-.384-.391-1.005-.391-1.389 0s-.384 1.023 0 1.414L26.646 15H2.982C2.439 15 2 15.448 2 16s.439 1 .982 1zM17.228 29a.974.974 0 0 0 .695-.293l7.86-8c.384-.391.384-1.023 0-1.414s-1.005-.391-1.389 0l-7.86 8a1.012 1.012 0 0 0 0 1.414.97.97 0 0 0 .694.293z" fill="#4c5bac" class="fill-000000"></path></svg>
