<svg width="40" height="40" viewBox="0 0 40 40" fill="none" xmlns="http://www.w3.org/2000/svg">
  <g id="Close">
    <g id="Group">
      <path id="Vector"
        d="M14.14 15.9575C14.3825 16.2012 14.7013 16.3225 15.02 16.3225C15.3388 16.3225 15.6575 16.2012 15.9 15.9575C16.3863 15.4712 16.3863 14.6825 15.9 14.1962L5.94378 4.22998C5.45753 3.74373 4.67003 3.74373 4.18378 4.22998C3.69753 4.71623 3.69753 5.50498 4.18378 5.99123L14.14 15.9575Z"
        fill="url(#paint0_linear_106_125)" />
      <path id="Vector_2"
        d="M21.7588 20.06L35.8151 5.99123C36.3013 5.50498 36.3013 4.71623 35.8151 4.22998C35.3288 3.74373 34.5413 3.52873 34.0551 4.01623L19.1201 18.75H18.7501V19.1812L4.00006 34.1287C3.51381 34.615 3.60631 35.4037 4.09131 35.89C4.33381 36.1337 4.69881 36.255 5.01756 36.255C5.33631 36.255 5.67756 36.1337 5.92006 35.89L19.9876 21.8225L34.0488 35.8912C34.2913 36.135 34.6138 36.2562 34.9313 36.2562C35.2488 36.2562 35.5701 36.135 35.8126 35.8912C36.2988 35.405 36.3001 34.6162 35.8138 34.13L21.7588 20.06Z"
        fill="url(#paint1_linear_106_125)" />
    </g>
  </g>
  <defs>
    <linearGradient id="paint0_linear_106_125" x1="10.0419" y1="3.8653" x2="10.0419" y2="16.3225"
      gradientUnits="userSpaceOnUse">
      <stop offset="0.197917" stop-color="#2D005E" />
      <stop offset="0.526042" stop-color="#7F00FF" />
      <stop offset="0.859375" stop-color="#2E005F" />
    </linearGradient>
    <linearGradient id="paint1_linear_106_125" x1="19.929" y1="3.74078" x2="19.929" y2="36.2562"
      gradientUnits="userSpaceOnUse">
      <stop offset="0.197917" stop-color="#2D005E" />
      <stop offset="0.526042" stop-color="#7F00FF" />
      <stop offset="0.859375" stop-color="#2E005F" />
    </linearGradient>
  </defs>
</svg>
