<svg width="27" height="30" viewBox="0 0 27 30" fill="none" xmlns="http://www.w3.org/2000/svg">
  <g clip-path="url(#clip0_18_51)">
    <path
      d="M9.40777 11.9681C9.56911 12.1509 9.78118 12.2418 9.99325 12.2418C10.2053 12.2418 10.4174 12.1509 10.5787 11.9681C10.9022 11.6034 10.9022 11.0118 10.5787 10.6471L3.95462 3.17244C3.63111 2.80775 3.10716 2.80775 2.78365 3.17244C2.46014 3.53713 2.46014 4.12869 2.78365 4.49338L9.40777 11.9681Z"
      fill="#FF0000" fill-opacity="0.87" />
    <path
      d="M14.4767 15.0451L23.8286 4.4935C24.1521 4.12881 24.1521 3.53725 23.8286 3.17256C23.5051 2.80787 22.9812 2.64662 22.6577 3.01225L12.7211 14.0626H12.4749V14.386L2.66139 25.5966C2.33788 25.9613 2.39942 26.5529 2.7221 26.9176C2.88344 27.1004 3.12628 27.1913 3.33835 27.1913C3.55043 27.1913 3.77747 27.1004 3.93881 26.9176L13.2982 16.3669L22.6535 26.9185C22.8148 27.1013 23.0294 27.1922 23.2406 27.1922C23.4519 27.1922 23.6656 27.1013 23.827 26.9185C24.1505 26.5538 24.1513 25.9622 23.8278 25.5976L14.4767 15.0451Z"
      fill="#FF0000" fill-opacity="0.87" />
  </g>
  <defs>
    <clipPath id="clip0_18_51">
      <path d="M0 10C0 4.47715 4.47715 0 10 0H26.6129V30H10C4.47715 30 0 25.5228 0 20V10Z"
        fill="white" />
    </clipPath>
  </defs>
</svg>
