<svg width="22" height="22" viewBox="0 0 22 22" fill="none" xmlns="http://www.w3.org/2000/svg">
<g id="Comunit Icon" clip-path="url(#clip0_106_108)">
<g id="7-Communication">
<path id="Vector" d="M2.29167 0.916667H16.0417C16.4063 0.916667 16.7561 1.06153 17.0139 1.31939C17.2718 1.57726 17.4167 1.92699 17.4167 2.29167V2.75H18.3333V2.29167C18.3333 1.68388 18.0919 1.10098 17.6621 0.671214C17.2323 0.241443 16.6495 0 16.0417 0L2.29167 0C1.68388 0 1.10098 0.241443 0.671214 0.671214C0.241443 1.10098 0 1.68388 0 2.29167L0 12.375C0 12.9828 0.241443 13.5657 0.671214 13.9955C1.10098 14.4252 1.68388 14.6667 2.29167 14.6667V13.75C1.92699 13.75 1.57726 13.6051 1.31939 13.3473C1.06153 13.0894 0.916667 12.7397 0.916667 12.375V2.29167C0.916667 1.92699 1.06153 1.57726 1.31939 1.31939C1.57726 1.06153 1.92699 0.916667 2.29167 0.916667Z" fill="#00FFF0"/>
<path id="Vector_2" d="M19.7083 4.125H5.95829C5.3505 4.125 4.76761 4.36644 4.33784 4.79621C3.90807 5.22598 3.66663 5.80888 3.66663 6.41667V16.5C3.66663 16.8009 3.7259 17.0989 3.84107 17.377C3.95624 17.655 4.12504 17.9077 4.33784 18.1205C4.55064 18.3333 4.80327 18.5021 5.08131 18.6172C5.35935 18.7324 5.65735 18.7917 5.95829 18.7917H13.562L16.6375 21.8671C16.7018 21.9302 16.7833 21.9729 16.8718 21.9899C16.9603 22.0069 17.0518 21.9974 17.1349 21.9627C17.2181 21.928 17.2891 21.8695 17.3392 21.7946C17.3893 21.7198 17.4163 21.6318 17.4166 21.5417V18.7917H19.7083C20.0092 18.7917 20.3072 18.7324 20.5853 18.6172C20.8633 18.5021 21.1159 18.3333 21.3287 18.1205C21.5415 17.9077 21.7104 17.655 21.8255 17.377C21.9407 17.0989 22 16.8009 22 16.5V6.41667C22 6.11572 21.9407 5.81772 21.8255 5.53968C21.7104 5.26165 21.5415 5.00901 21.3287 4.79621C21.1159 4.58341 20.8633 4.41461 20.5853 4.29944C20.3072 4.18428 20.0092 4.125 19.7083 4.125ZM21.0833 16.5C21.0833 16.8647 20.9384 17.2144 20.6806 17.4723C20.4227 17.7301 20.073 17.875 19.7083 17.875H16.9583C16.8367 17.875 16.7202 17.9233 16.6342 18.0092C16.5482 18.0952 16.5 18.2118 16.5 18.3333V20.4371L14.0754 18.0125C14.0329 17.9692 13.9823 17.9347 13.9264 17.9111C13.8706 17.8875 13.8106 17.8753 13.75 17.875H5.95829C5.59362 17.875 5.24388 17.7301 4.98602 17.4723C4.72816 17.2144 4.58329 16.8647 4.58329 16.5V6.41667C4.58329 6.05199 4.72816 5.70226 4.98602 5.44439C5.24388 5.18653 5.59362 5.04167 5.95829 5.04167H19.7083C20.073 5.04167 20.4227 5.18653 20.6806 5.44439C20.9384 5.70226 21.0833 6.05199 21.0833 6.41667V16.5Z" fill="#00FFF0"/>
<path id="Vector_3" d="M13.75 7.79166H7.33337V8.70832H13.75V7.79166Z" fill="#00FFF0"/>
<path id="Vector_4" d="M18.3334 11H7.33337V11.9167H18.3334V11Z" fill="#00FFF0"/>
<path id="Vector_5" d="M18.3334 14.2083H7.33337V15.125H18.3334V14.2083Z" fill="#00FFF0"/>
<path id="Vector_6" d="M15.5833 7.79166H14.6666V8.70832H15.5833V7.79166Z" fill="#00FFF0"/>
</g>
</g>
<defs>
<clipPath id="clip0_106_108">
<rect width="22" height="22" fill="white"/>
</clipPath>
</defs>
</svg>
