<svg width="22" height="22" viewBox="0 0 22 22" fill="none" xmlns="http://www.w3.org/2000/svg">
  <g id="Conta Icon">
    <path id="Vector"
      d="M2.75 17.4167V4.58333C2.75 3.57081 3.57081 2.75 4.58333 2.75H14.824C15.3102 2.75 15.7765 2.94315 16.1203 3.28697L18.713 5.87969C19.0569 6.22352 19.25 6.68982 19.25 7.17606V17.4167C19.25 18.4292 18.4292 19.25 17.4167 19.25H4.58333C3.57081 19.25 2.75 18.4292 2.75 17.4167Z"
      stroke="#00FFF0" stroke-width="1.5" />
    <path id="Vector_2"
      d="M7.88337 8.25H14.1167C14.4205 8.25 14.6667 8.00376 14.6667 7.7V3.3C14.6667 2.99624 14.4205 2.75 14.1167 2.75H7.88337C7.57962 2.75 7.33337 2.99624 7.33337 3.3V7.7C7.33337 8.00376 7.57962 8.25 7.88337 8.25Z"
      stroke="#00FFF0" stroke-width="1.5" />
    <path id="Vector_3"
      d="M5.5 12.4667V19.25H16.5V12.4667C16.5 12.1629 16.2538 11.9167 15.95 11.9167H6.05C5.74624 11.9167 5.5 12.1629 5.5 12.4667Z"
      stroke="#00FFF0" stroke-width="1.5" />
  </g>
</svg>
