<svg width="28" height="28" viewBox="0 0 28 28" fill="none" xmlns="http://www.w3.org/2000/svg">
<g id="Download Icon" clip-path="url(#clip0_114_126)">
<g id="Group">
<path id="Vector" d="M1.16663 16.9167C1.16591 15.628 1.49378 14.3605 2.11927 13.2338C2.74476 12.1072 3.64719 11.1586 4.74129 10.4778C5.03006 8.22627 6.12939 6.15709 7.83357 4.65751C9.53774 3.15794 11.73 2.33076 14 2.33076C16.27 2.33076 18.4622 3.15794 20.1664 4.65751C21.8705 6.15709 22.9699 8.22627 23.2586 10.4778C24.6157 11.3221 25.6714 12.5736 26.2748 14.0536C26.8782 15.5336 26.9986 17.1665 26.6188 18.719C26.239 20.2715 25.3783 21.6643 24.1597 22.6985C22.9411 23.7327 21.4269 24.3555 19.8333 24.4778L8.16663 24.5C4.25129 24.1803 1.16663 20.909 1.16663 16.9167ZM19.656 22.1515C20.7594 22.0667 21.8079 21.6353 22.6515 20.919C23.4951 20.2026 24.0908 19.238 24.3535 18.1629C24.6162 17.0878 24.5324 15.9572 24.114 14.9326C23.6957 13.908 22.9643 13.0418 22.0243 12.4577L21.0828 11.8708L20.9428 10.7718C20.7247 9.08447 19.8997 7.53426 18.6218 6.41093C17.344 5.28761 15.7008 4.66805 13.9994 4.66805C12.298 4.66805 10.6548 5.28761 9.37696 6.41093C8.09911 7.53426 7.27404 9.08447 7.05596 10.7718L6.91596 11.8708L5.97679 12.4577C5.03681 13.0417 4.30541 13.9078 3.88706 14.9323C3.4687 15.9569 3.3848 17.0874 3.64732 18.1624C3.90984 19.2375 4.50536 20.2021 5.34884 20.9185C6.19231 21.6349 7.24059 22.0664 8.34396 22.1515L8.54579 22.1667H19.4541L19.656 22.1515ZM15.1666 14H18.6666L14 19.8333L9.33329 14H12.8333V9.33333H15.1666V14Z" fill="#00FFF0"/>
</g>
</g>
<defs>
<clipPath id="clip0_114_126">
<rect width="28" height="28" fill="white"/>
</clipPath>
</defs>
</svg>
