<svg width="22" height="22" viewBox="0 0 22 22" fill="none" xmlns="http://www.w3.org/2000/svg">
<g id="Downloads Icon" clip-path="url(#clip0_106_97)">
<path id="Vector" d="M21.3125 7.86501C21.3062 6.97678 21.035 6.11063 20.5335 5.37748C20.032 4.64432 19.3231 4.07753 18.4976 3.74968C17.6721 3.42183 16.7675 3.34784 15.8996 3.53718C15.0318 3.72653 14.2402 4.17059 13.6262 4.81251H8.37375C7.7598 4.17059 6.96822 3.72653 6.10038 3.53718C5.23254 3.34784 4.32794 3.42183 3.5024 3.74968C2.67687 4.07753 1.96797 4.64432 1.46649 5.37748C0.965011 6.11063 0.69377 6.97678 0.6875 7.86501C0.258566 10.6155 0.0288022 13.3933 0 16.1769C0 17.8406 0.6875 18.9269 2.0075 19.1744C2.25184 19.2244 2.50059 19.2498 2.75 19.25C3.3401 19.261 3.91733 19.0769 4.39217 18.7264C4.867 18.3758 5.21291 17.8784 5.37625 17.3113C5.64438 16.555 6.12563 15.51 6.42125 14.8775C6.78669 15.0439 7.18412 15.1282 7.58563 15.1245C7.98713 15.1208 8.38296 15.0293 8.74531 14.8563C9.10765 14.6833 9.42772 14.4331 9.68303 14.1232C9.93834 13.8133 10.1227 13.4513 10.2231 13.0625H11.7769C11.8775 13.4504 12.0617 13.8116 12.3165 14.1208C12.5714 14.43 12.8907 14.6798 13.2522 14.8527C13.6137 15.0256 14.0086 15.1174 14.4093 15.1217C14.81 15.126 15.2068 15.0426 15.5719 14.8775C15.8675 15.5031 16.3487 16.5481 16.6169 17.3113C16.7805 17.8796 17.1275 18.3778 17.6037 18.7285C18.0799 19.0791 18.6587 19.2625 19.25 19.25C19.5017 19.2503 19.7528 19.2249 19.9994 19.1744C21.3125 18.9063 22 17.8406 22 16.1769C21.9712 13.3933 21.7414 10.6155 21.3125 7.86501ZM4.73688 17.0844C4.66276 17.3495 4.53633 17.597 4.36504 17.8125C4.19376 18.028 3.98107 18.207 3.73953 18.339C3.49798 18.4709 3.23246 18.5532 2.95861 18.581C2.68476 18.6088 2.40812 18.5815 2.145 18.5006C0.941875 18.2463 0.6875 17.0981 0.6875 16.1769C0.704006 14.0437 0.846336 11.9133 1.11375 9.79689C1.44757 10.5151 1.96569 11.132 2.6154 11.5848C3.2651 12.0377 4.02319 12.3103 4.8125 12.375C4.81379 12.7858 4.90708 13.1911 5.08554 13.5611C5.264 13.9311 5.52308 14.2564 5.84375 14.5131C5.5 15.2144 5.01875 16.28 4.73688 17.0844ZM7.5625 14.4375C7.01549 14.4375 6.49089 14.2202 6.10409 13.8334C5.7173 13.4466 5.5 12.922 5.5 12.375C5.49266 12.2766 5.49266 12.1778 5.5 12.0794V11.6875H5.15625C4.31311 11.6875 3.49415 11.4058 2.82951 10.887C2.16488 10.3682 1.6927 9.64216 1.48801 8.82424C1.28332 8.00633 1.35787 7.14346 1.6998 6.37277C2.04174 5.60208 2.63144 4.96778 3.37521 4.57068C4.11898 4.17357 4.97413 4.03643 5.80477 4.18106C6.63541 4.32569 7.39388 4.74379 7.95966 5.36892C8.52543 5.99404 8.86605 6.79033 8.92737 7.63123C8.9887 8.47214 8.76722 9.30942 8.29812 10.01L8.07812 10.3125L8.4425 10.4844C8.88179 10.6754 9.24089 11.0134 9.45817 11.4403C9.67546 11.8672 9.73737 12.3564 9.63328 12.824C9.5292 13.2916 9.2656 13.7083 8.88775 14.0027C8.50989 14.2972 8.04133 14.4509 7.5625 14.4375ZM10.3125 12.375C10.3121 11.9173 10.1974 11.467 9.97892 11.0648C9.76042 10.6626 9.445 10.3213 9.06125 10.0719C9.45578 9.36981 9.65263 8.57391 9.63084 7.76886C9.60904 6.96381 9.36944 6.17973 8.9375 5.50001H13.0625C12.6263 6.17721 12.3819 6.95999 12.3553 7.76506C12.3286 8.57012 12.5208 9.36735 12.9113 10.0719C12.5326 10.3245 12.2226 10.6672 12.009 11.0692C11.7954 11.4711 11.6849 11.9198 11.6875 12.375H10.3125ZM12.375 12.375C12.376 11.9836 12.4884 11.6006 12.699 11.2707C12.9096 10.9408 13.2098 10.6776 13.5644 10.5119L13.9219 10.3125L13.7019 9.98252C13.2396 9.27887 13.0254 8.44107 13.0931 7.60189C13.1609 6.7627 13.5068 5.97014 14.076 5.3498C14.6452 4.72946 15.4052 4.31683 16.2355 4.1773C17.0657 4.03778 17.9188 4.17934 18.6595 4.57955C19.4003 4.97976 19.9862 5.61573 20.3246 6.38667C20.6629 7.1576 20.7343 8.01941 20.5274 8.83551C20.3205 9.65161 19.8471 10.3753 19.1824 10.8919C18.5176 11.4086 17.6994 11.6885 16.8575 11.6875H16.4175L16.5 12.0794C16.5073 12.1778 16.5073 12.2766 16.5 12.375C16.5 12.922 16.2827 13.4466 15.8959 13.8334C15.5091 14.2202 14.9845 14.4375 14.4375 14.4375C13.8905 14.4375 13.3659 14.2202 12.9791 13.8334C12.5923 13.4466 12.375 12.922 12.375 12.375ZM19.855 18.5006C19.5919 18.5815 19.3152 18.6088 19.0414 18.581C18.7675 18.5532 18.502 18.4709 18.2605 18.339C18.0189 18.207 17.8062 18.028 17.635 17.8125C17.4637 17.597 17.3372 17.3495 17.2631 17.0844C16.9813 16.28 16.5 15.2144 16.1562 14.5131C16.4769 14.2564 16.736 13.9311 16.9145 13.5611C17.0929 13.1911 17.1862 12.7858 17.1875 12.375C17.9756 12.3123 18.733 12.042 19.3827 11.5916C20.0324 11.1411 20.5511 10.5267 20.8862 9.81064C21.153 11.9225 21.2953 14.0483 21.3125 16.1769C21.3125 17.0981 21.0581 18.2463 19.855 18.5006Z" fill="#00FFF0"/>
<path id="Vector_2" d="M6.1875 8.9375H7.5625V6.875H6.1875V5.5H4.125V6.875H2.75V8.9375H4.125V10.3125H6.1875V8.9375ZM5.5 9.625H4.8125V8.25H3.4375V7.5625H4.8125V6.1875H5.5V7.5625H6.875V8.25H5.5V9.625Z" fill="#00FFF0"/>
<path id="Vector_3" d="M16.8438 6.875C17.0477 6.875 17.2471 6.81452 17.4167 6.7012C17.5863 6.58789 17.7184 6.42683 17.7965 6.23839C17.8746 6.04996 17.895 5.84261 17.8552 5.64256C17.8154 5.44252 17.7172 5.25877 17.573 5.11455C17.4287 4.97032 17.245 4.87211 17.0449 4.83232C16.8449 4.79252 16.6375 4.81295 16.4491 4.891C16.2607 4.96905 16.0996 5.10123 15.9863 5.27082C15.873 5.44041 15.8125 5.63979 15.8125 5.84375C15.8125 6.11726 15.9211 6.37956 16.1145 6.57295C16.3079 6.76635 16.5702 6.875 16.8438 6.875ZM16.8438 5.5C16.9117 5.5 16.9782 5.52016 17.0347 5.55793C17.0913 5.5957 17.1353 5.64939 17.1613 5.7122C17.1874 5.77502 17.1942 5.84413 17.1809 5.91081C17.1676 5.97749 17.1349 6.03874 17.0868 6.08682C17.0387 6.13489 16.9775 6.16763 16.9108 6.1809C16.8441 6.19416 16.775 6.18735 16.7122 6.16133C16.6494 6.13532 16.5957 6.09126 16.5579 6.03473C16.5202 5.9782 16.5 5.91174 16.5 5.84375C16.5 5.75258 16.5362 5.66515 16.6007 5.60068C16.6651 5.53622 16.7526 5.5 16.8438 5.5Z" fill="#00FFF0"/>
<path id="Vector_4" d="M16.8438 11C17.0477 11 17.2471 10.9395 17.4167 10.8262C17.5863 10.7129 17.7184 10.5518 17.7965 10.3634C17.8746 10.175 17.895 9.96761 17.8552 9.76756C17.8154 9.56752 17.7172 9.38377 17.573 9.23955C17.4287 9.09532 17.245 8.99711 17.0449 8.95732C16.8449 8.91752 16.6375 8.93795 16.4491 9.016C16.2607 9.09405 16.0996 9.22623 15.9863 9.39582C15.873 9.56541 15.8125 9.76479 15.8125 9.96875C15.8125 10.2423 15.9211 10.5046 16.1145 10.698C16.3079 10.8914 16.5702 11 16.8438 11ZM16.8438 9.625C16.9117 9.625 16.9782 9.64516 17.0347 9.68293C17.0913 9.7207 17.1353 9.77439 17.1613 9.8372C17.1874 9.90002 17.1942 9.96913 17.1809 10.0358C17.1676 10.1025 17.1349 10.1637 17.0868 10.2118C17.0387 10.2599 16.9775 10.2926 16.9108 10.3059C16.8441 10.3192 16.775 10.3124 16.7122 10.2863C16.6494 10.2603 16.5957 10.2163 16.5579 10.1597C16.5202 10.1032 16.5 10.0367 16.5 9.96875C16.5 9.87758 16.5362 9.79015 16.6007 9.72568C16.6651 9.66122 16.7526 9.625 16.8438 9.625Z" fill="#00FFF0"/>
<path id="Vector_5" d="M14.7812 8.9375C14.9852 8.9375 15.1846 8.87702 15.3542 8.7637C15.5238 8.65039 15.6559 8.48933 15.734 8.30089C15.8121 8.11246 15.8325 7.90511 15.7927 7.70506C15.7529 7.50502 15.6547 7.32127 15.5105 7.17705C15.3662 7.03282 15.1825 6.93461 14.9824 6.89482C14.7824 6.85502 14.575 6.87545 14.3866 6.9535C14.1982 7.03155 14.0371 7.16373 13.9238 7.33332C13.8105 7.50291 13.75 7.70229 13.75 7.90625C13.75 8.17976 13.8586 8.44206 14.052 8.63545C14.2454 8.82885 14.5077 8.9375 14.7812 8.9375ZM14.7812 7.5625C14.8492 7.5625 14.9157 7.58266 14.9722 7.62043C15.0288 7.6582 15.0728 7.71189 15.0988 7.7747C15.1249 7.83752 15.1317 7.90663 15.1184 7.97331C15.1051 8.03999 15.0724 8.10124 15.0243 8.14932C14.9762 8.19739 14.915 8.23013 14.8483 8.2434C14.7816 8.25666 14.7125 8.24985 14.6497 8.22383C14.5869 8.19782 14.5332 8.15376 14.4954 8.09723C14.4577 8.0407 14.4375 7.97424 14.4375 7.90625C14.4375 7.81508 14.4737 7.72765 14.5382 7.66318C14.6026 7.59872 14.6901 7.5625 14.7812 7.5625Z" fill="#00FFF0"/>
<path id="Vector_6" d="M18.9062 8.9375C19.1102 8.9375 19.3096 8.87702 19.4792 8.7637C19.6488 8.65039 19.7809 8.48933 19.859 8.30089C19.9371 8.11246 19.9575 7.90511 19.9177 7.70506C19.8779 7.50502 19.7797 7.32127 19.6355 7.17705C19.4912 7.03282 19.3075 6.93461 19.1074 6.89482C18.9074 6.85502 18.7 6.87545 18.5116 6.9535C18.3232 7.03155 18.1621 7.16373 18.0488 7.33332C17.9355 7.50291 17.875 7.70229 17.875 7.90625C17.875 8.17976 17.9836 8.44206 18.177 8.63545C18.3704 8.82885 18.6327 8.9375 18.9062 8.9375ZM18.9062 7.5625C18.9742 7.5625 19.0407 7.58266 19.0972 7.62043C19.1538 7.6582 19.1978 7.71189 19.2238 7.7747C19.2499 7.83752 19.2567 7.90663 19.2434 7.97331C19.2301 8.03999 19.1974 8.10124 19.1493 8.14932C19.1012 8.19739 19.04 8.23013 18.9733 8.2434C18.9066 8.25666 18.8375 8.24985 18.7747 8.22383C18.7119 8.19782 18.6582 8.15376 18.6204 8.09723C18.5827 8.0407 18.5625 7.97424 18.5625 7.90625C18.5625 7.81508 18.5987 7.72765 18.6632 7.66318C18.7276 7.59872 18.8151 7.5625 18.9062 7.5625Z" fill="#00FFF0"/>
<path id="Vector_7" d="M7.5625 11C7.29055 11 7.02471 11.0806 6.79859 11.2317C6.57247 11.3828 6.39624 11.5976 6.29217 11.8488C6.1881 12.1001 6.16087 12.3765 6.21392 12.6432C6.26698 12.91 6.39793 13.155 6.59023 13.3473C6.78253 13.5396 7.02753 13.6705 7.29425 13.7236C7.56098 13.7766 7.83744 13.7494 8.08869 13.6453C8.33994 13.5413 8.55468 13.365 8.70577 13.1389C8.85686 12.9128 8.9375 12.6469 8.9375 12.375C8.9375 12.0103 8.79263 11.6606 8.53477 11.4027C8.27691 11.1449 7.92717 11 7.5625 11ZM7.5625 13.0625C7.42653 13.0625 7.2936 13.0222 7.18055 12.9466C7.06749 12.8711 6.97937 12.7637 6.92733 12.6381C6.8753 12.5125 6.86168 12.3742 6.88821 12.2409C6.91474 12.1075 6.98022 11.985 7.07636 11.8889C7.17251 11.7927 7.29501 11.7272 7.42838 11.7007C7.56174 11.6742 7.69997 11.6878 7.8256 11.7398C7.95122 11.7919 8.05859 11.88 8.13414 11.993C8.20968 12.1061 8.25 12.239 8.25 12.375C8.25 12.5573 8.17757 12.7322 8.04864 12.8611C7.91971 12.9901 7.74484 13.0625 7.5625 13.0625Z" fill="#00FFF0"/>
<path id="Vector_8" d="M14.4375 11C14.1656 11 13.8997 11.0806 13.6736 11.2317C13.4475 11.3828 13.2712 11.5976 13.1672 11.8488C13.0631 12.1001 13.0359 12.3765 13.0889 12.6432C13.142 12.91 13.2729 13.155 13.4652 13.3473C13.6575 13.5396 13.9025 13.6705 14.1693 13.7236C14.436 13.7766 14.7124 13.7494 14.9637 13.6453C15.2149 13.5413 15.4297 13.365 15.5808 13.1389C15.7319 12.9128 15.8125 12.6469 15.8125 12.375C15.8125 12.0103 15.6676 11.6606 15.4098 11.4027C15.1519 11.1449 14.8022 11 14.4375 11ZM14.4375 13.0625C14.3015 13.0625 14.1686 13.0222 14.0555 12.9466C13.9425 12.8711 13.8544 12.7637 13.8023 12.6381C13.7503 12.5125 13.7367 12.3742 13.7632 12.2409C13.7897 12.1075 13.8552 11.985 13.9514 11.8889C14.0475 11.7927 14.17 11.7272 14.3034 11.7007C14.4367 11.6742 14.575 11.6878 14.7006 11.7398C14.8262 11.7919 14.9336 11.88 15.0091 11.993C15.0847 12.1061 15.125 12.239 15.125 12.375C15.125 12.5573 15.0526 12.7322 14.9236 12.8611C14.7947 12.9901 14.6198 13.0625 14.4375 13.0625Z" fill="#00FFF0"/>
</g>
<defs>
<clipPath id="clip0_106_97">
<rect width="22" height="22" fill="white"/>
</clipPath>
</defs>
</svg>
