<svg width="40" height="40" viewBox="0 0 40 40" fill="none" xmlns="http://www.w3.org/2000/svg">
<g id="Editor Icon" clip-path="url(#clip0_220_79)">
<path id="Vector" fill-rule="evenodd" clip-rule="evenodd" d="M33.3812 21.4931C33.7446 21.6509 33.7718 21.7141 33.7968 22.0819C33.7968 25.015 33.8062 27.9478 33.7968 30.881C33.7637 34.3972 30.7293 37.6778 26.9646 37.7131C21.1021 37.7313 15.24 37.7319 9.37746 37.7131C5.84214 37.6794 2.58277 34.6516 2.54714 30.8825C2.52839 25.0197 2.52839 19.1566 2.54714 13.2938C2.58058 9.74658 5.60589 6.47533 9.42089 6.46314H23.234C23.6937 6.4947 23.7818 6.65283 23.8459 6.96095C23.9212 7.32408 23.6225 7.68657 23.234 7.71314C18.6178 7.71314 14.0015 7.69876 9.38527 7.71345C6.49277 7.74064 3.82621 10.2188 3.79683 13.3019C3.77839 19.1594 3.77839 25.0169 3.79683 30.8747C3.82464 33.7822 6.30246 36.4338 9.38527 36.4631C15.2425 36.4819 21.0996 36.4813 26.9568 36.4631C29.8665 36.436 32.5371 33.8772 32.5468 30.8372V22.0819C32.5743 21.6781 32.9465 21.3713 33.3812 21.4931ZM34.9771 2.37689C37.0606 2.41814 38.7271 5.03501 37.3465 7.01908L26.3103 22.6741C26.2343 22.7697 26.2103 22.7916 26.1075 22.8575L21.0821 25.7056C20.6425 25.9222 20.0781 25.5522 20.164 25.0256L21.3946 19.5028C21.4237 19.3972 21.4353 19.371 21.494 19.2785L32.53 3.62376C33.0859 2.84533 33.9996 2.36939 34.9771 2.37689ZM34.9187 3.62658C34.3806 3.63595 33.8637 3.9072 33.5493 4.3472L22.5875 19.8966L21.69 23.9241L25.3693 21.8391C29.0246 16.6538 32.7121 11.4906 36.3356 6.28314C37.0034 5.29751 36.3303 3.68689 35.0018 3.62783C34.974 3.62689 34.9462 3.62658 34.9187 3.62658Z" fill="#00FFF0"/>
</g>
<defs>
<clipPath id="clip0_220_79">
<rect width="40" height="40" fill="white"/>
</clipPath>
</defs>
</svg>
