<?xml version="1.0"?>
<svg viewBox="0 0 256 256" xmlns="http://www.w3.org/2000/svg">
  <rect fill="none" height="256" width="256" />
  <line fill="none" stroke="#000" stroke-linecap="round" stroke-linejoin="round" stroke-width="12"
    x1="48" x2="208" y1="40" y2="216" />
  <path d="M154.9,157.6A39.6,39.6,0,0,1,128,168a40,40,0,0,1-26.9-69.6" fill="none" stroke="#000"
    stroke-linecap="round" stroke-linejoin="round" stroke-width="12" />
  <path d="M74,68.6C33.2,89.2,16,128,16,128s32,72,112,72a117.9,117.9,0,0,0,54-12.6" fill="none"
    stroke="#000" stroke-linecap="round" stroke-linejoin="round" stroke-width="12" />
  <path d="M208.6,169.1C230.4,149.6,240,128,240,128S208,56,128,56a123.9,123.9,0,0,0-20.7,1.7"
    fill="none" stroke="#000" stroke-linecap="round" stroke-linejoin="round" stroke-width="12" />
  <path d="M135.5,88.7a39.9,39.9,0,0,1,32.3,35.5" fill="none" stroke="#000" stroke-linecap="round"
    stroke-linejoin="round" stroke-width="12" />
</svg>
