<svg width="16" height="15" viewBox="0 0 16 15" fill="none" xmlns="http://www.w3.org/2000/svg">
  <g clip-path="url(#clip0_5_5)">
    <path
      d="M5.84077 14.145C5.76061 14.145 5.68046 14.1314 5.60358 14.1033C2.70108 13.0504 0.841551 10.2708 0.976082 7.18591C0.981707 7.057 1.08483 6.95857 1.2203 6.96185C1.34968 6.96747 1.44999 7.07716 1.44436 7.20607C1.31874 10.0851 3.05452 12.6797 5.76343 13.6617C5.83421 13.6879 5.91249 13.6772 5.97577 13.6322C6.04093 13.5862 6.07796 13.515 6.07749 13.4367L6.07374 12.6993C4.23296 12.9623 3.79702 11.5861 3.79233 11.5715C3.53358 10.9129 3.16327 10.7184 3.15952 10.7165C2.99921 10.6092 2.69264 10.3997 2.77983 10.125C2.85811 9.87747 3.17921 9.86107 3.31233 9.85685C4.12608 9.91403 4.53858 10.6504 4.55546 10.6818C5.00358 11.452 5.68702 11.3597 6.11874 11.1947C6.16093 10.9828 6.23077 10.7901 6.32452 10.6247C4.97827 10.3968 3.42952 9.69982 3.42952 7.07716C3.42952 6.3595 3.65405 5.72716 4.09702 5.19466C3.99952 4.87872 3.87764 4.20466 4.21139 3.35482C4.23718 3.28919 4.29108 3.23903 4.35811 3.21747C4.42561 3.19544 5.04858 3.03278 6.34093 3.88591C6.86546 3.7495 7.42327 3.67872 7.99983 3.67591C8.57827 3.67872 9.13561 3.7495 9.66061 3.88591C10.9525 3.03278 11.5731 3.19544 11.6416 3.21747C11.7086 3.23903 11.762 3.28919 11.7878 3.35435C12.123 4.20419 12.0016 4.87825 11.9036 5.19513C12.3461 5.72622 12.5701 6.35857 12.5701 7.07763C12.5701 9.70028 11.0195 10.3954 9.67093 10.6209C9.83686 10.9129 9.92827 11.2893 9.92827 11.7084C9.92827 12.1833 9.92593 12.8639 9.92358 13.439C9.92358 13.5168 9.95968 13.5867 10.0239 13.6322C10.0881 13.6772 10.1673 13.6879 10.2409 13.6617C12.8261 12.7223 14.5628 10.2459 14.5628 7.49997C14.5628 5.68919 13.8409 4.0031 12.5308 2.752C11.2211 1.50185 9.50171 0.859659 7.68577 0.944972C7.55686 0.954816 7.44718 0.850753 7.44061 0.721847C7.43452 0.592472 7.53436 0.482784 7.66374 0.476691C9.60999 0.387628 11.4512 1.07388 12.8542 2.4131C14.2586 3.75325 15.0316 5.55982 15.0316 7.49997C15.0316 10.4423 13.1706 13.0954 10.4012 14.1018C10.1842 14.1801 9.9428 14.1483 9.75436 14.0151C9.5664 13.8825 9.45436 13.6664 9.4553 13.4372C9.45765 12.8625 9.45999 12.1828 9.45999 11.7084C9.45999 11.0245 9.19421 10.7208 9.07983 10.6223C9.00952 10.5614 8.9814 10.4643 9.00905 10.3758C9.03671 10.2867 9.11452 10.2225 9.20686 10.2122C10.6384 10.0528 12.1019 9.55544 12.1019 7.0781C12.1019 6.43122 11.8872 5.86778 11.4644 5.40513C11.4034 5.3381 11.3861 5.24247 11.4203 5.15857C11.4855 4.99919 11.6659 4.4381 11.4006 3.6595C11.2023 3.66513 10.6961 3.7481 9.83499 4.3345C9.7778 4.37341 9.70655 4.3856 9.63999 4.36638C9.13186 4.22482 8.56515 4.14841 7.99983 4.14513C7.42889 4.14794 6.87718 4.22247 6.36202 4.36638C6.29593 4.38607 6.22468 4.37341 6.16702 4.3345C5.30921 3.75091 4.80296 3.6656 4.59858 3.66044C4.33468 4.43903 4.51561 4.99872 4.5803 5.15857C4.61405 5.24247 4.59718 5.3381 4.53624 5.40466C4.11249 5.86919 3.8978 6.43216 3.8978 7.0781C3.8978 9.55403 5.35796 10.0547 6.78624 10.2173C6.87811 10.2276 6.95546 10.2914 6.98311 10.38C7.01077 10.4681 6.98358 10.5651 6.91421 10.6261C6.80921 10.7184 6.62311 10.9411 6.55983 11.3948C6.54905 11.4745 6.49749 11.5429 6.4239 11.5758C6.07233 11.7342 4.86952 12.1556 4.14671 10.9134C4.14155 10.9045 3.90061 10.4817 3.46983 10.3575C3.62264 10.4597 3.97468 10.7568 4.23436 11.4192C4.25452 11.4815 4.61311 12.5484 6.25608 12.1908C6.32546 12.1762 6.39718 12.1922 6.45249 12.2367C6.5078 12.2808 6.54014 12.3478 6.54061 12.4181L6.54577 13.4353C6.54671 13.6654 6.43468 13.8829 6.2453 14.0161C6.1253 14.1009 5.98374 14.145 5.84077 14.145Z"
      fill="#FF0000" />
    <path
      d="M7.87672 14.5312C4.00344 14.5312 0.96875 11.4427 0.96875 7.5C0.96875 5.79891 1.54906 4.16672 2.60234 2.90438C2.68484 2.805 2.83344 2.79141 2.93234 2.87484C3.03172 2.95781 3.04531 3.10547 2.96234 3.20484C1.97891 4.38281 1.4375 5.90812 1.4375 7.5C1.4375 11.1802 4.26594 14.0625 7.87672 14.0625C11.5634 14.0625 14.5625 11.1187 14.5625 7.5C14.5625 3.88125 11.5634 0.9375 7.87672 0.9375C6.7325 0.9375 5.62109 1.22812 4.66203 1.7775C4.55047 1.84078 4.40656 1.80234 4.34234 1.69031C4.27812 1.57781 4.31703 1.43484 4.42906 1.37016C5.45891 0.780469 6.65141 0.46875 7.87672 0.46875C11.8217 0.46875 15.0312 3.62297 15.0312 7.5C15.0312 11.377 11.8217 14.5312 7.87672 14.5312Z"
      fill="#FF0000" />
    <path
      d="M4.03564 2.13379C4.03564 2.2627 3.93018 2.36816 3.80127 2.36816C3.67236 2.36816 3.56689 2.2627 3.56689 2.13379C3.56689 2.00488 3.67236 1.89941 3.80127 1.89941C3.93018 1.89941 4.03564 2.00441 4.03564 2.13379Z"
      fill="#FF0000" />
  </g>
  <defs>
    <clipPath id="clip0_5_5">
      <rect width="15" height="15" fill="white" transform="translate(0.5)" />
    </clipPath>
  </defs>
</svg>
