<svg width="16" height="15" viewBox="0 0 16 15" fill="none" xmlns="http://www.w3.org/2000/svg">
  <path
    d="M11.2812 14.0625H4.71875C2.90938 14.0625 1.4375 12.5906 1.4375 10.7812V4.21875C1.4375 2.40938 2.90938 0.9375 4.71875 0.9375H11.2812C13.0906 0.9375 14.5625 2.40938 14.5625 4.21875V10.7812C14.5625 12.5906 13.0906 14.0625 11.2812 14.0625ZM4.71875 1.40625C3.16766 1.40625 1.90625 2.66766 1.90625 4.21875V10.7812C1.90625 12.3323 3.16766 13.5938 4.71875 13.5938H11.2812C12.8323 13.5938 14.0938 12.3323 14.0938 10.7812V4.21875C14.0938 2.66766 12.8323 1.40625 11.2812 1.40625H4.71875Z"
    fill="#FF0000" />
  <path
    d="M9.875 12.1875H6.125C4.57391 12.1875 3.3125 10.9261 3.3125 9.375V5.625C3.3125 4.07391 4.57391 2.8125 6.125 2.8125H9.875C11.4261 2.8125 12.6875 4.07391 12.6875 5.625V9.375C12.6875 10.9261 11.4261 12.1875 9.875 12.1875ZM6.125 3.75C5.09094 3.75 4.25 4.59094 4.25 5.625V9.375C4.25 10.4091 5.09094 11.25 6.125 11.25H9.875C10.9091 11.25 11.75 10.4091 11.75 9.375V5.625C11.75 4.59094 10.9091 3.75 9.875 3.75H6.125Z"
    fill="#FF0000" />
  <path
    d="M10.5781 5.50781C10.2552 5.50781 9.99219 5.24484 9.99219 4.92188C9.99219 4.59891 10.2552 4.33594 10.5781 4.33594C10.9011 4.33594 11.1641 4.59891 11.1641 4.92188C11.1641 5.24484 10.9011 5.50781 10.5781 5.50781Z"
    fill="#FF0000" />
  <path
    d="M8 9.84375C6.70766 9.84375 5.65625 8.79234 5.65625 7.5C5.65625 6.20766 6.70766 5.15625 8 5.15625C9.29234 5.15625 10.3438 6.20766 10.3438 7.5C10.3438 8.79234 9.29234 9.84375 8 9.84375ZM8 6.09375C7.22469 6.09375 6.59375 6.72469 6.59375 7.5C6.59375 8.27531 7.22469 8.90625 8 8.90625C8.77531 8.90625 9.40625 8.27531 9.40625 7.5C9.40625 6.72469 8.77531 6.09375 8 6.09375Z"
    fill="#FF0000" />
</svg>
