<svg width="16" height="15" viewBox="0 0 16 15" fill="none" xmlns="http://www.w3.org/2000/svg">
  <g clip-path="url(#clip0_5_22)">
    <path
      d="M2.83578 4.16016H2.81563C1.74547 4.16016 0.96875 3.45047 0.96875 2.47266C0.96875 1.49344 1.76187 0.782349 2.85453 0.782349C3.92891 0.782349 4.69578 1.47422 4.71875 2.46469C4.71875 3.44954 3.92703 4.16016 2.83578 4.16016ZM2.85453 1.2511C2.02016 1.2511 1.4375 1.7536 1.4375 2.47266C1.4375 3.19032 2.00422 3.69188 2.81563 3.69188H2.83578C3.66875 3.69141 4.25 3.18938 4.25 2.47032C4.23266 1.73157 3.68516 1.2511 2.85453 1.2511Z"
      fill="#FF0000" />
    <path
      d="M4.01562 13.5938H1.67188C1.5425 13.5938 1.4375 13.4888 1.4375 13.3594V4.92188C1.4375 4.7925 1.5425 4.6875 1.67188 4.6875H4.01562C4.145 4.6875 4.25 4.7925 4.25 4.92188V13.3594C4.25 13.4888 4.145 13.5938 4.01562 13.5938ZM1.90625 13.125H3.78125V5.15625H1.90625V13.125Z"
      fill="#FF0000" />
    <path
      d="M14.7969 13.5938H11.9844C11.855 13.5938 11.75 13.4888 11.75 13.3594V8.90625C11.75 8.13094 11.1191 7.5 10.3438 7.5C9.56844 7.5 8.9375 8.13094 8.9375 8.90625V13.3594C8.9375 13.4888 8.8325 13.5938 8.70312 13.5938H5.89062C5.76125 13.5938 5.65625 13.4888 5.65625 13.3594V4.92188C5.65625 4.7925 5.76125 4.6875 5.89062 4.6875H8.70312C8.8325 4.6875 8.9375 4.7925 8.9375 4.92188V6.33469C8.9375 6.46406 8.8325 6.56906 8.70312 6.56906C8.57375 6.56906 8.46875 6.46406 8.46875 6.33469V5.15625H6.125V13.125H8.46875V8.90625C8.46875 7.87219 9.30969 7.03125 10.3438 7.03125C11.3778 7.03125 12.2188 7.87219 12.2188 8.90625V13.125H14.5625V8.20312C14.5625 6.52312 13.1956 5.15625 11.5156 5.15625C10.8669 5.15625 10.2397 5.34656 9.70109 5.70609C9.59375 5.77734 9.44797 5.74922 9.37625 5.64141C9.30453 5.53359 9.33313 5.38828 9.44141 5.31656C10.0569 4.905 10.7741 4.6875 11.5156 4.6875C13.4544 4.6875 15.0312 6.26437 15.0312 8.20312V13.3594C15.0312 13.4888 14.9263 13.5938 14.7969 13.5938Z"
      fill="#FF0000" />
  </g>
  <defs>
    <clipPath id="clip0_5_22">
      <rect width="15" height="15" fill="white" transform="translate(0.5)" />
    </clipPath>
  </defs>
</svg>
