<svg width="22" height="22" viewBox="0 0 22 22" fill="none" xmlns="http://www.w3.org/2000/svg">
<g id="Member Icon">
<g id="g3351">
<path id="path3283" d="M10.9141 1.32914C10.4743 1.33307 10.1274 1.66079 9.8005 2.00052C9.3632 1.81101 8.91411 1.63703 8.50607 1.80537C8.10139 1.97237 7.9072 2.40547 7.73621 2.8402C7.26078 2.83008 6.78146 2.84092 6.47042 3.14815H6.46859C6.15681 3.45645 6.14842 3.93144 6.16065 4.4014C5.71446 4.57113 5.27139 4.76306 5.10254 5.16589L5.10071 5.16767C4.93387 5.56801 5.10749 6.00807 5.29944 6.43525C4.95703 6.75824 4.62637 7.10012 4.62626 7.53275C4.6263 7.9689 4.95938 8.31276 5.3066 8.6374C5.11319 9.06698 4.93951 9.51194 5.10787 9.91393C5.277 10.3132 5.71654 10.5043 6.15881 10.673C6.14802 11.1408 6.15931 11.6142 6.47034 11.9209V11.9228C6.78353 12.2297 7.26589 12.2374 7.74329 12.2253C7.91588 12.6638 8.11141 13.0997 8.5203 13.2655C8.92686 13.4308 9.37328 13.259 9.80758 13.0704C10.0119 13.2807 10.2277 13.4781 10.4646 13.6039V17.4335C10.4218 17.3949 10.4243 17.3916 10.3698 17.344C9.84684 16.8879 9.19965 16.3733 8.53642 16.123C8.02153 15.9285 7.48826 15.8642 6.99133 15.8705C5.50094 15.8892 4.24133 16.5419 4.24133 16.5419L3.8761 16.7209L4.01038 17.0987C4.01038 17.0987 4.79778 19.4419 6.85706 20.2193C7.7276 20.5481 9.27548 20.663 10.9087 20.6705C12.5418 20.678 14.1717 20.5675 15.1447 20.2193H15.1518C17.211 19.4419 17.9895 17.0987 17.9895 17.0987L18.1238 16.7209L17.7675 16.5419C17.7675 16.5419 16.4993 15.8884 15.0086 15.8705C14.5102 15.863 13.9871 15.9286 13.4724 16.123C12.8149 16.3712 12.1302 16.8848 11.5764 17.3386C11.4685 17.4271 11.4585 17.444 11.3885 17.5051V13.6021C11.6265 13.4755 11.8422 13.2776 12.0473 13.065C12.4837 13.2554 12.9334 13.4277 13.3417 13.262H13.3436C13.7492 13.0955 13.9438 12.6625 14.1152 12.2271C14.5904 12.2377 15.0694 12.2272 15.381 11.921C15.693 11.6127 15.7047 11.136 15.6925 10.6659C16.1386 10.4967 16.5809 10.3053 16.7506 9.90323L16.7525 9.90139C16.9193 9.50106 16.7439 9.05921 16.552 8.63203C16.8955 8.30851 17.2288 7.96634 17.2287 7.53274V7.53095C17.2271 7.09554 16.8901 6.75365 16.543 6.42988C16.7371 5.99968 16.9139 5.55596 16.7453 5.15335V5.15156C16.5762 4.75225 16.1367 4.56116 15.6944 4.39245C15.7048 3.92554 15.6915 3.45451 15.3811 3.14815C15.0683 2.84007 14.586 2.82855 14.1081 2.8402C13.9357 2.40097 13.7403 1.96443 13.3311 1.79821L13.3204 1.79463C12.9155 1.63468 12.4726 1.80569 12.042 1.99336C11.7139 1.65632 11.366 1.33093 10.9266 1.33092L11.0287 1.34345L10.9714 1.32913H10.9266H10.9159L10.9141 1.32914ZM13.3204 1.79463L13.3025 1.78747L13.2702 1.77852C13.2666 1.77761 13.2631 1.7776 13.2595 1.77673L13.3204 1.79463ZM10.9195 2.24043H10.9213H10.9231H10.925C11.0887 2.24013 11.3153 2.34462 11.582 2.70234L11.8326 3.03714L12.1942 2.82051C12.5758 2.59223 12.8261 2.57842 12.9766 2.63789H12.9784V2.63968C13.1302 2.70177 13.2991 2.8857 13.4063 3.32002L13.5084 3.72643L13.9273 3.66198C14.3755 3.59329 14.6134 3.67657 14.7294 3.79088C14.8448 3.90472 14.9265 4.13565 14.8583 4.57327L14.7956 4.98506L15.2074 5.08532C15.6446 5.19026 15.8284 5.35402 15.8913 5.50248C15.9534 5.65193 15.9408 5.89862 15.7051 6.27949L15.6371 6.38871V6.75036L15.8287 6.88464C16.196 7.14794 16.3043 7.37298 16.3049 7.53454C16.3046 7.69566 16.1974 7.91691 15.834 8.17907L15.4903 8.42793L15.7123 8.78421C15.9461 9.16267 15.9569 9.40712 15.8949 9.55586C15.8313 9.70478 15.6459 9.86963 15.2056 9.97481L14.792 10.0751L14.8565 10.4868C14.9269 10.9287 14.8453 11.1637 14.7294 11.2782C14.6136 11.3919 14.3763 11.4729 13.9309 11.4053L13.5137 11.3426L13.4117 11.7491C13.3051 12.1795 13.1382 12.3603 12.9873 12.4222C12.8355 12.4834 12.5865 12.4699 12.1996 12.2378L11.8344 12.0212L11.5855 12.3578C11.3176 12.7193 11.0892 12.8268 10.9248 12.8269C10.7614 12.8268 10.5359 12.7221 10.2696 12.3649L10.0189 12.0301L9.65906 12.245C9.27465 12.4748 9.02412 12.4872 8.87309 12.4258C8.72116 12.3642 8.55273 12.1815 8.44519 11.7473L8.34314 11.3391L7.9242 11.4035C7.47624 11.4724 7.24013 11.3903 7.1239 11.2764C7.00876 11.1622 6.92474 10.9298 6.99321 10.4922L7.05765 10.0822L6.64587 9.98197C6.20864 9.87703 6.02304 9.71147 5.96017 9.56302C5.89807 9.41357 5.91246 9.16866 6.14816 8.78779L6.36837 8.42972L6.02641 8.18265C5.65913 7.91896 5.55019 7.69455 5.55017 7.53275C5.55021 7.37186 5.65648 7.15035 6.01925 6.88822L6.36121 6.64115L6.14099 6.28486C5.90715 5.90641 5.8946 5.66016 5.95659 5.51143C6.01987 5.36213 6.20698 5.1979 6.64767 5.09248L7.06124 4.99222L6.99499 4.57865C6.92499 4.13767 7.00999 3.90531 7.12569 3.79089C7.24153 3.67712 7.47597 3.59301 7.92061 3.66019L8.33777 3.72464L8.43982 3.31823C8.5463 2.88909 8.71201 2.70709 8.86235 2.64505C9.01409 2.58245 9.2671 2.59355 9.65548 2.82588L10.0171 3.0443L10.266 2.70772C10.5311 2.35047 10.7566 2.24226 10.9195 2.24043ZM16.5376 6.47285L16.5609 6.51761L16.4929 6.75394C16.5501 6.66142 16.4929 6.56735 16.5376 6.47285ZM7.00574 16.78C7.41198 16.7748 7.82382 16.8293 8.20528 16.9733C8.63565 17.1358 9.26794 17.6024 9.75574 18.0279C10.1658 18.3855 10.3743 18.6048 10.4647 18.6975V19.7466C9.04392 19.7118 7.68447 19.5569 7.18657 19.3688C5.90497 18.885 5.45924 17.67 5.25118 17.2061C5.62835 17.0488 6.0951 16.7914 7.00574 16.78ZM14.9961 16.78C15.9065 16.7909 16.3723 17.0487 16.7489 17.2061C16.5413 17.6689 16.1015 18.8749 14.8278 19.3635C14.2057 19.5861 12.8108 19.7276 11.3886 19.7502V18.7297C11.4786 18.6426 11.723 18.4022 12.1709 18.035C12.6928 17.6073 13.3659 17.1379 13.802 16.9733C14.1837 16.8292 14.5913 16.7739 14.9961 16.78Z" fill="#00FFF0"/>
<path id="path3328" d="M10.4521 4.13116V4.5698V5.02627H8.91602V7.96788H11.9901V9.15309H9.39046H8.91602V10.0394H9.39046H10.4521V10.4941V10.9417H11.401V10.4941V10.0394H12.9372V7.09061H9.86491V5.91432H12.4645H12.9372V5.02627H12.4645H11.401V4.5698V4.13116H10.4521Z" fill="#00FFF0"/>
</g>
</g>
</svg>
