<svg width="40" height="40" viewBox="0 0 40 40" fill="none" xmlns="http://www.w3.org/2000/svg">
  <g id="Open">
    <path id="Vector"
      d="M20 7C19.4696 7 18.9609 7.20319 18.5858 7.56487C18.2107 7.92654 18 8.41708 18 8.92857C18 9.44006 18.2107 9.9306 18.5858 10.2923C18.9609 10.654 19.4696 10.8571 20 10.8571H36C36.5304 10.8571 37.0391 10.654 37.4142 10.2923C37.7893 9.9306 38 9.44006 38 8.92857C38 8.41708 37.7893 7.92654 37.4142 7.56487C37.0391 7.20319 36.5304 7 36 7H20ZM10 20.5C10 19.9885 10.2107 19.498 10.5858 19.1363C10.9609 18.7746 11.4696 18.5714 12 18.5714H28C28.5304 18.5714 29.0391 18.7746 29.4142 19.1363C29.7893 19.498 30 19.9885 30 20.5C30 21.0115 29.7893 21.502 29.4142 21.8637C29.0391 22.2254 28.5304 22.4286 28 22.4286H12C11.4696 22.4286 10.9609 22.2254 10.5858 21.8637C10.2107 21.502 10 21.0115 10 20.5ZM2 32.0714C2 31.5599 2.21071 31.0694 2.58579 30.7077C2.96086 30.346 3.46957 30.1429 4 30.1429H20C20.5304 30.1429 21.0391 30.346 21.4142 30.7077C21.7893 31.0694 22 31.5599 22 32.0714C22 32.5829 21.7893 33.0735 21.4142 33.4351C21.0391 33.7968 20.5304 34 20 34H4C3.46957 34 2.96086 33.7968 2.58579 33.4351C2.21071 33.0735 2 32.5829 2 32.0714Z"
      fill="url(#paint0_linear_114_149)" />
  </g>
  <defs>
    <linearGradient id="paint0_linear_114_149" x1="20" y1="7" x2="20" y2="34"
      gradientUnits="userSpaceOnUse">
      <stop offset="0.00520833" stop-color="#7100FF" />
      <stop offset="0.697917" stop-color="#2D005E" />
      <stop offset="1" stop-color="#7100FF" />
    </linearGradient>
  </defs>
</svg>
