<svg width="30" height="31" viewBox="0 0 30 31" fill="none" xmlns="http://www.w3.org/2000/svg">
  <path
    d="M27.5 22.9503C27.5 23.6373 26.943 24.1943 26.256 24.1943H16.244C15.557 24.1943 15 23.6373 15 22.9503C15 22.2633 15.557 21.7063 16.244 21.7063H26.256C26.943 21.7063 27.5 22.2633 27.5 22.9503Z"
    fill="black" />
  <path
    d="M27.5 15.4446C27.5 16.1317 26.943 16.6886 26.256 16.6886H3.74399C3.05695 16.6886 2.5 16.1317 2.5 15.4446C2.5 14.7576 3.05695 14.2007 3.74399 14.2007H26.256C26.943 14.2007 27.5 14.7576 27.5 15.4446Z"
    fill="black" />
  <path
    d="M26.256 9.18232C26.943 9.18232 27.5 8.62536 27.5 7.93832C27.5 7.25129 26.943 6.69434 26.256 6.69434H11.244C10.5569 6.69434 10 7.25129 10 7.93832C10 8.62536 10.5569 9.18232 11.244 9.18232H26.256Z"
    fill="black" />
</svg>
