<svg width="20" height="20" viewBox="0 0 20 20" fill="none" xmlns="http://www.w3.org/2000/svg">
  <path
    d="M18.1362 9.37509L1.86437 9.37509C1.61625 9.37509 1.39188 9.52759 1.29688 9.76071C1.20188 9.99446 1.25438 10.2632 1.43 10.442L8.79812 17.942C9.03812 18.1863 9.42625 18.1863 9.66625 17.942C9.90625 17.6976 9.90625 17.3026 9.66625 17.0582L3.34625 10.6251L18.1362 10.6251C18.4756 10.6251 18.75 10.3451 18.75 10.0001C18.75 9.65509 18.4756 9.37509 18.1362 9.37509Z"
    fill="black" />
  <path
    d="M9.23244 1.87509C9.07557 1.87509 8.91807 1.93634 8.79807 2.05821L3.88557 7.05821C3.64557 7.30259 3.64557 7.69759 3.88557 7.94196C4.12557 8.18634 4.51369 8.18634 4.75369 7.94196L9.66619 2.94196C9.90619 2.69759 9.90619 2.30259 9.66619 2.05821C9.54682 1.93634 9.38932 1.87509 9.23244 1.87509Z"
    fill="black" />
</svg>
