<svg width="22" height="22" viewBox="0 0 22 22" fill="none" xmlns="http://www.w3.org/2000/svg">
<g id="Post Icon">
<path id="Vector" fill-rule="evenodd" clip-rule="evenodd" d="M1.375 4.58333C1.375 2.81142 2.81142 1.375 4.58333 1.375H17.4167C19.1886 1.375 20.625 2.81142 20.625 4.58333V17.4167C20.625 19.1886 19.1886 20.625 17.4167 20.625H4.58333C2.81142 20.625 1.375 19.1886 1.375 17.4167V4.58333ZM4.58333 2.29167C3.31768 2.29167 2.29167 3.31768 2.29167 4.58333V17.4167C2.29167 18.6823 3.31768 19.7083 4.58333 19.7083H17.4167C18.6823 19.7083 19.7083 18.6823 19.7083 17.4167V4.58333C19.7083 3.31768 18.6823 2.29167 17.4167 2.29167H4.58333Z" fill="#00FFF0"/>
<path id="Vector_2" fill-rule="evenodd" clip-rule="evenodd" d="M1.375 8.25002C1.375 7.99689 1.5802 7.79169 1.83333 7.79169H20.1667C20.4198 7.79169 20.625 7.99689 20.625 8.25002C20.625 8.50315 20.4198 8.70835 20.1667 8.70835H1.83333C1.5802 8.70835 1.375 8.50315 1.375 8.25002Z" fill="#00FFF0"/>
<path id="Vector_3" fill-rule="evenodd" clip-rule="evenodd" d="M5.95833 4.12498C5.45208 4.12498 5.04167 4.53539 5.04167 5.04165C5.04167 5.5479 5.45208 5.95831 5.95833 5.95831C6.46459 5.95831 6.875 5.5479 6.875 5.04165C6.875 4.53539 6.46459 4.12498 5.95833 4.12498ZM4.125 5.04165C4.125 4.02912 4.94581 3.20831 5.95833 3.20831C6.97086 3.20831 7.79167 4.02912 7.79167 5.04165C7.79167 6.05417 6.97086 6.87498 5.95833 6.87498C4.94581 6.87498 4.125 6.05417 4.125 5.04165Z" fill="#00FFF0"/>
<path id="Vector_4" fill-rule="evenodd" clip-rule="evenodd" d="M17.4167 5.49998H10.0834V4.58331H17.4167V5.49998Z" fill="#00FFF0"/>
</g>
</svg>
