<svg width="25" height="25" viewBox="0 0 25 25" fill="none" xmlns="http://www.w3.org/2000/svg">
  <path
    d="M23.2187 22.5624L18.3437 17.6562C21.8437 13.7499 21.5624 7.7499 17.6562 4.21865C13.7499 0.6874 7.7499 0.9999 4.21865 4.90615C0.6874 8.8124 0.9999 14.8124 4.90615 18.3437C8.53115 21.6249 14.0624 21.6249 17.6874 18.3437L22.5937 23.2499L23.2187 22.5624ZM11.2811 19.8437C6.5624 19.8437 2.71865 15.9999 2.71865 11.2811C2.71865 6.53115 6.5624 2.71865 11.2811 2.71865C15.9999 2.71865 19.8437 6.5624 19.8437 11.2811C19.8437 15.9999 15.9999 19.8437 11.2811 19.8437Z"
    fill="black" />
  <path
    d="M11.2812 4V4.9375C14.7812 4.9375 17.625 7.78125 17.625 11.2812H18.5625C18.5625 7.25 15.3125 4 11.2812 4Z"
    fill="black" />
</svg>
