<svg viewBox="0 0 80 80" xml:space="preserve" xmlns="http://www.w3.org/2000/svg"
  enable-background="new 0 0 80 80"><path d="M74.3 72.2 58.7 56.5C69.9 44 69 24.8 56.5 13.5s-31.7-10.3-43 2.2-10.3 31.7 2.2 43c11.6 10.5 29.3 10.5 40.9 0l15.7 15.7 2-2.2zm-38.2-8.7C21 63.5 8.7 51.2 8.7 36.1 8.7 20.9 21 8.7 36.1 8.7c15.1 0 27.4 12.3 27.4 27.4 0 15.1-12.3 27.4-27.4 27.4z" fill="#6090a1" class="fill-000000"></path><path d="M36.1 12.8v3c11.2 0 20.3 9.1 20.3 20.3h3c0-12.9-10.4-23.3-23.3-23.3z" fill="#6090a1" class="fill-000000"></path></svg>
