<svg width="28" height="28" viewBox="0 0 28 28" fill="none" xmlns="http://www.w3.org/2000/svg">
<g id="Search Icon">
<path id="Vector" d="M25.1372 12.5686C25.1372 5.63259 19.5046 0 12.5686 0C5.63259 0 0 5.63259 0 12.5686C0 19.5046 5.63259 25.1372 12.5686 25.1372C15.7107 25.1372 18.5736 23.9734 20.7614 22.0881L26.6733 28L28 26.6733L22.0881 20.7614C23.9734 18.5736 25.1372 15.7107 25.1372 12.5686ZM12.5686 23.2751C6.65669 23.2751 1.86201 18.4805 1.86201 12.5686C1.86201 6.65669 6.65669 1.86201 12.5686 1.86201C18.4805 1.86201 23.2751 6.65669 23.2751 12.5686C23.2751 18.4805 18.4805 23.2751 12.5686 23.2751Z" fill="#00FFF0" fill-opacity="0.7"/>
<path id="Vector_2" d="M5.72583 6.95931L7.16889 8.14634C8.49557 6.51708 10.474 5.58607 12.5687 5.58607V3.72406C9.91536 3.72406 7.42492 4.91109 5.72583 6.95931Z" fill="#00FFF0" fill-opacity="0.7"/>
<path id="Vector_3" d="M3.724 12.5686H5.58601C5.58601 12.0798 5.63256 11.6143 5.72566 11.1488L3.9102 10.7764C3.79382 11.3583 3.724 11.9634 3.724 12.5686Z" fill="#00FFF0" fill-opacity="0.7"/>
</g>
</svg>
