<svg width="40" height="40" viewBox="0 0 40 40" fill="none" xmlns="http://www.w3.org/2000/svg">
  <g id="Verificar Icon" clip-path="url(#clip0_226_2)">
    <path id="Vector"
      d="M37.1983 7.385L14.1666 30.415C14.0118 30.5705 13.8278 30.6938 13.6251 30.778C13.4225 30.8622 13.2052 30.9055 12.9858 30.9055C12.7664 30.9055 12.5491 30.8622 12.3465 30.778C12.1438 30.6938 11.9598 30.5705 11.805 30.415L2.89829 21.5C2.74344 21.3445 2.55942 21.2212 2.35678 21.137C2.15414 21.0528 1.93688 21.0095 1.71746 21.0095C1.49804 21.0095 1.28077 21.0528 1.07813 21.137C0.875497 21.2212 0.691474 21.3445 0.536625 21.5C0.381163 21.6548 0.257809 21.8389 0.17364 22.0415C0.0894703 22.2441 0.0461426 22.4614 0.0461426 22.6808C0.0461426 22.9003 0.0894703 23.1175 0.17364 23.3202C0.257809 23.5228 0.381163 23.7068 0.536625 23.8617L9.44662 32.77C10.3865 33.7082 11.6603 34.2351 12.9883 34.2351C14.3163 34.2351 15.59 33.7082 16.53 32.77L39.56 9.745C39.7152 9.59018 39.8383 9.40626 39.9223 9.20378C40.0064 9.00129 40.0496 8.78422 40.0496 8.565C40.0496 8.34577 40.0064 8.1287 39.9223 7.92622C39.8383 7.72374 39.7152 7.53982 39.56 7.385C39.4051 7.22954 39.2211 7.10618 39.0185 7.02201C38.8158 6.93784 38.5986 6.89452 38.3791 6.89452C38.1597 6.89452 37.9424 6.93784 37.7398 7.02201C37.5372 7.10618 37.3531 7.22954 37.1983 7.385Z"
      fill="#00FFF0" />
  </g>
  <defs>
    <clipPath id="clip0_226_2">
      <rect width="40" height="40" fill="white" />
    </clipPath>
  </defs>
</svg>
