<svg width="80" height="80" viewBox="0 0 80 80" fill="none" xmlns="http://www.w3.org/2000/svg">
<g id="visor-da-camera 1" clip-path="url(#clip0_219_67)">
<path id="Vector" d="M40 30C34.4867 30 30 34.4867 30 40C30 45.5133 34.4867 50 40 50C45.5133 50 50 45.5133 50 40C50 34.4867 45.5133 30 40 30ZM40 46.6667C36.3233 46.6667 33.3333 43.6767 33.3333 40C33.3333 36.3233 36.3233 33.3333 40 33.3333C43.6767 33.3333 46.6667 36.3233 46.6667 40C46.6667 43.6767 43.6767 46.6667 40 46.6667ZM25 20C20.4033 20 16.6667 23.7367 16.6667 28.3333V51.6667C16.6667 56.2633 20.4033 60 25 60H55C59.5967 60 63.3333 56.2633 63.3333 51.6667V28.3333C63.3333 23.7367 59.5967 20 55 20H50.91L48.1 15.63C47.1767 14.19 45.6067 13.3333 43.8933 13.3333H36.1C34.3867 13.3333 32.82 14.1933 31.8933 15.6267L29.0833 20H24.9933H25ZM60 28.3333V51.6667C60 54.4233 57.7567 56.6667 55 56.6667H25C22.2433 56.6667 20 54.4233 20 51.6667V28.3333C20 25.5767 22.2433 23.3333 25 23.3333H55C57.7567 23.3333 60 25.5767 60 28.3333ZM34.7033 17.43C35.01 16.9533 35.5333 16.6667 36.1033 16.6667H43.8967C44.4667 16.6667 44.99 16.9533 45.2967 17.43L46.9467 20H33.0533L34.7033 17.43ZM26.6667 78.3333C26.6667 79.2533 25.92 80 25 80H15C6.73 80 0 73.27 0 65V55C0 54.08 0.746667 53.3333 1.66667 53.3333C2.58667 53.3333 3.33333 54.08 3.33333 55V65C3.33333 71.4333 8.56667 76.6667 15 76.6667H25C25.92 76.6667 26.6667 77.4133 26.6667 78.3333ZM80 55V65C80 73.27 73.27 80 65 80H55C54.08 80 53.3333 79.2533 53.3333 78.3333C53.3333 77.4133 54.08 76.6667 55 76.6667H65C71.4333 76.6667 76.6667 71.4333 76.6667 65V55C76.6667 54.08 77.4133 53.3333 78.3333 53.3333C79.2533 53.3333 80 54.08 80 55ZM80 15V25C80 25.92 79.2533 26.6667 78.3333 26.6667C77.4133 26.6667 76.6667 25.92 76.6667 25V15C76.6667 8.56667 71.4333 3.33333 65 3.33333H55C54.08 3.33333 53.3333 2.58667 53.3333 1.66667C53.3333 0.746667 54.08 0 55 0H65C73.27 0 80 6.73 80 15ZM0 25V15C0 6.73 6.73 0 15 0H25C25.92 0 26.6667 0.746667 26.6667 1.66667C26.6667 2.58667 25.92 3.33333 25 3.33333H15C8.56667 3.33333 3.33333 8.56667 3.33333 15V25C3.33333 25.92 2.58667 26.6667 1.66667 26.6667C0.746667 26.6667 0 25.92 0 25Z" fill="#00FFF0"/>
</g>
<defs>
<clipPath id="clip0_219_67">
<rect width="80" height="80" fill="white"/>
</clipPath>
</defs>
</svg>
